<svg xmlns="http://www.w3.org/2000/svg" viewBox="0 0 1913 1096"><g fill="none" stroke="gray" stroke-width="2"><path d="M1501.6 105.67q.32-.53-.05-1.03c-1.88-2.53-2.59-5.64-4.28-8.27q-6.13-9.5-7.99-11.33c-5.32-5.25-10.91-10.95-17.05-15.28-6.24-4.4-12.87-7.85-19.6-11.44q-6.99-3.74-19.86-8.01c-8.71-2.88-17.91-5.94-26.82-7.9q-20.79-4.57-43.21-6.9-30.35-3.16-42.24-3.55c-5.92-.19-11.72-.69-16.67-.7-15.8-.03-31.8-.47-47.57.39q-6.22.35-13 .68-62.79 3.05-126.02 10.77-9.23 1.13-19.79 2.77c-28.66 4.43-57.44 8.09-86.14 13.51-19.71 3.72-39.8 7.3-59.15 10.92-7.34 1.37-14.92 3.52-22.2 5.01q-21.31 4.37-35.71 7.54-2.15.48-4.24 1.69-.72.42.11.35c2.15-.19 4.2-.81 6.36-1.02q50.89-4.87 93.27-7.69 29.32-1.94 51.03-3.57 10.16-.76 19.96-1.2 26.31-1.19 52.56-2.16 2.74-.1 5.2-.11c9.82-.07 19.75-.62 29.38-.63 10.77-.01 21.5.33 32.16-.36q5.39-.35 10.66-.07 7.76.4 15.71.39 45.62-.03 91.12 3.23 9.47.68 19.92 1.83 16.9 1.86 31.94 3.52 17.03 1.87 40.97 6.41 8.24 1.55 15.94 3.78c11.04 3.2 21.86 6.04 32.24 10.53q9.79 4.23 19.71 11.87c5.65 4.36 9.74 11.34 10 18.46q.6 16.5 3.09 30.25 1.25 6.85 3.31 13.02c3.18 9.52 6.16 18.77 11 27.08q3.35 5.76 10.08 14.51 2.67 3.48 5.95 6.39c3.99 3.54 7.34 7.35 11.86 10.29 9.33 6.05 17.76 11.2 27.82 14.37q38.41 12.11 79.12 7.97 34.39-3.51 65.05-11.07c7.64-1.88 15.01-4.56 22.75-6.73 11.46-3.23 22.92-6.67 33.79-11.29q5.02-2.14 10.44-4.02c8.18-2.82 16.28-6.35 24.21-10.05 6.6-3.08 13.4-5.85 19.79-9.14 11.28-5.8 22.34-11.2 33.24-18.14q7.79-4.96 15-10.4 2.94-2.22 5.16-6.18a1.1 1.09-42.4 0 0 .05-.98q-1.61-3.61-3.86-6.66-5.06-6.86-10.9-14.31c-3.8-4.85-8.31-8.57-12.34-12.99-5.34-5.87-12.15-11.25-18.35-16.36-6.22-5.11-13.52-9.57-20.47-14.24q-7.27-4.88-15.81-8.42-1.95-.81-4.16.05l-21.26 8.28q-2.56 1-4.92 1.94-13.28 5.25-26.48 9.98c-6.82 2.45-13.73 5.56-20.82 7.88q-12.33 4.02-25.38 8.6-9.84 3.46-19.06 5.81-13.16 3.36-24.94 6.36-33.52 8.56-65.71 9.26-17.2.37-31.57-3.52-11.32-3.06-19.92-11.6-3.71-3.67-5.22-8.77-2.97-10.04 2.81-19.6"/><path d="M766.72 120.75c-4.35.69-9.98-.7-13.67 2.01q-.7.51.16.36 1.27-.23 2.56-.64 1.46-.45 3-.57 3.56-.28 7.15-.44 3.97-.18 7.16-.63c5.03-.72 9.76-1.69 14.91-1.62q8.17.12 16.62-.82 6.78-.76 13.85-.85 10.84-.13 20.47-.54c11.82-.5 23.64.34 35.32-.6q4.53-.37 9.03-.08c13.91.9 27.82-.02 41.72.71 6.99.36 14.1.35 21.09.6q64.47 2.3 129 7.8 9.85.84 20.09 1.99 26.88 3 52.31 5.59 23.85 2.43 47.61 5.61 9.29 1.24 19.71 3.33c16.12 3.23 31.07 6.01 48.09 10.62 7.1 1.92 14.07 4.58 21.07 6.91 9.45 3.14 18.51 6.67 27.25 11.26 7.2 3.78 14.11 6.89 21.02 11.55q11.78 7.93 18.84 14.07 7.43 6.46 15.76 16.18c4.88 5.69 8.86 12.25 12.92 18.43q2.9 4.44 7.78 15.98 1.05 2.47 1.84 4.87c1.38 4.17 3.55 8.05 4.7 12.15q5.62 19.93 8.39 40.83 1.69 12.66 3.76 26.56c.94 6.3 5.05 10.93 8.79 15.73q1.93 2.46 4.84 4.93 6.52 5.52 12.84 10.48 5.33 4.18 16.38 10.57c2.03 1.18 3.87 2.68 5.87 3.78q6.03 3.34 21.5 10.51 12.77 5.92 22.66 9.07c11.11 3.54 22.41 7.65 33.57 10.12q36.99 8.17 70.18 9.45 18.84.72 30.43.18 44.43-2.07 85.83-12.03c3.61-.87 6.98-2.14 10.43-3.09q18.29-5.02 32.37-9.79c3.94-1.33 7.62-3.27 11.58-4.65 5.87-2.06 11.57-4.47 17.33-6.72q4.61-1.81 8.75-3.81 8.82-4.27 17.72-8.45c9.01-4.24 18.05-9.31 26.82-13.98q6.12-3.27 11.9-6.89c7.35-4.62 15.17-8.62 22.36-13.8q4.72-3.4 10.72-6.74c2.09-1.16 3.83-2.82 4.37-5.25q1.84-8.25 1.38-16.81-1.22-22.52-5.16-46.1c-2.37-14.17-5.89-27.8-9.5-41.26-1.34-5.01-3.26-12.05-7.03-15.84q-.38-.39-.8-.04-2.18 1.79-3.83 4.04c-3.4 4.64-6.38 9.34-10.52 13.58-4.22 4.33-7.88 8.95-12.57 13.08q-6.35 5.6-11.4 9.57-10.13 7.95-22.79 15.55c-4.62 2.77-9.44 4.96-14.06 7.64q-4.96 2.87-10.9 5.38-10.56 4.46-21.03 8.66-7.19 2.88-13.49 4.95c-10.33 3.39-20.08 5.72-30.52 8.67-17.25 4.87-35.29 7.98-52.8 10.47q-21.1 2.99-34.84 4.49-31.42 3.42-62.88 1.09c-8.51-.63-17.02-2.46-25.39-4.04q-14.21-2.67-28.78-8.18-3.91-1.47-7.24-3.31c-4.62-2.54-9.31-4.66-13.88-7.53q-4.81-3.02-6.47-4.25-17.26-12.76-29.83-30.58-5.53-7.84-8.41-14.36c-1.57-3.54-3.8-6.69-5.33-10.13q-4.51-10.14-7.81-21.78c-3.3-11.66-5.78-21.09-7.92-31.85q-2.01-10.05-9.9-18.2-7.21-7.45-17.07-13.47-6.85-4.17-16.26-7.91-12.03-4.79-17.29-6.53c-15.13-5-34.49-8.49-51.95-12.01q-8.32-1.68-17.86-2.92-27.39-3.59-55.09-5.58-33.53-2.42-56.78-2.88-4.95-.1-8.17-.31c-9.57-.63-19.23-.22-28.82-.59-13.43-.54-26.61-.44-39.82-.44-14.97.01-30.4.99-45.67.73-3.3-.06-6.66.56-9.98.54q-7.6-.06-16.25.22-90.63 2.99-176.53 9.46-9.61.73-19.94 1.75-11.83 1.17-23.66 2.02-4.44.32-8.76.81c-6.7.75-13.61 1.82-20.08 1.72q-6.32-.09-11.58.96-5.44 1.09-9.47 1.12-1.04.01-2.02.16"/><path d="M751.03 170.53q10.73-.93 21.46-2.02 2.19-.23 4.03-.38 34.95-2.93 69.56-3.73c2.05-.05 4.13-.39 6.17-.39 10.23 0 19.71.07 30.31-.45 8.36-.41 16.42.44 24.63.47q42.87.18 86 4.33c11.83 1.13 24.94 3.05 37.5 4.48q17.89 2.05 48.84 7.58c7.81 1.4 15.39 3.54 23.11 5.21q15.38 3.32 30.82 7.28 7.57 1.94 14.25 4.2c10.43 3.54 21.9 6.49 31.98 10.25q14.14 5.27 27.34 10.55 9.04 3.62 18.31 8.04 10.02 4.78 19.04 8.84c2.87 1.29 5.44 3.31 8.18 4.78q8.06 4.32 16.22 8.77c4.32 2.36 8.1 5.39 12.4 7.85 9.85 5.64 18.79 12.62 28.24 19.21q2.89 2.01 5.51 4.32c5.54 4.87 12.05 8.8 17.12 13.5 2.23 2.05 8.75 6.97 11.67 4.66q.42-.33.49-.87.38-2.93-.17-5.56-1.38-6.59-3.91-13.72c-1.83-5.18-4.92-10.09-7.43-15.18-2.43-4.92-7.04-11.84-11.39-16.55-4.1-4.46-7.97-9.12-12.53-13.21q-7.57-6.78-12.7-10.57-6.42-4.74-13.77-9.07c-5-2.94-9.66-6.19-15.1-8.61q-6.42-2.86-14.65-6.82-8.2-3.95-14.88-6.2-24.83-8.39-35.22-11.26-13.89-3.83-27-6.31c-13.46-2.54-27.29-5.72-40.85-7.6q-58.43-8.1-124.11-9.79-3.02-.08-6.25-.13-25.44-.37-49.66-.34-10.13.01-19.98.36-23.29.82-46.86 1.69-24.08.89-72.73 4.6-6.03.46-12.07 1.02-6.15.58-12.08 1.03-8.72.65-17.08 1.59-8.53.95-17.16 1.77-6.7.63-12.83 1.6-6.61 1.04-12.67 1.52-4.73.39-9.16 1.38c-4.74 1.05-9.36.84-14.17 1.23q-.16.02-.16.18v.01q.01.21.22.21c4.24 0 8.59.25 12.79-.48 4.19-.73 8.48-1.4 12.8-1.62 5.78-.28 11.83-1.15 17.58-1.65m783.85 286.85c-10.99-3.84-22.2-7.12-32.64-12.14q-8.77-4.22-18.88-9.17c-7.96-3.89-14.69-8.54-22.23-13.02q-4.92-2.92-9.49-6.44c-6.87-5.28-13.53-9.71-19.85-16.04q-1.99-2-1.39.76.42 1.91 1.46 3.77 3.96 7.13 7.73 14.24c4.87 9.15 11.26 17.52 16.99 26.05 1.65 2.45 3.66 4.47 5.59 6.66 3.49 3.93 6.32 8.47 10.15 12.03q2.74 2.54 5.15 5.36c4.29 5.01 9.18 9.03 14.14 13.17 2.17 1.8 3.92 4.08 6.26 5.73q5.77 4.08 11.24 8.26 4.8 3.67 10.53 7.08 15.05 8.99 23.09 12.73 10.28 4.79 26.4 10.41 9.81 3.42 21.28 5.68c15.61 3.08 30.66 4.8 46.89 4.93q13.82.11 19.2-.11 27.95-1.16 61.33-8.77c6.9-1.57 13.71-3.95 20.42-6.07q9.72-3.09 18.8-6.99c5.37-2.31 10.26-5.29 15.43-7.98q6-3.13 11.24-6.55 24.86-16.19 44.74-38.2c6.7-7.42 12.77-15.62 18.62-23.51q4.36-5.88 8.45-13.26c1.24-2.22 3.01-4.2 4.27-6.43q5.57-9.89 10.39-20.75c1.21-2.73 2.87-5.07 3.96-7.85q2.61-6.69 4.66-12.96.46-1.43.56-2.97.04-.58-.39-.19-2.92 2.7-6.93 5.28-6.05 3.88-12.75 8.87-4.86 3.61-15.43 10.1-3.15 1.94-6.09 4.12c-3.75 2.77-7.9 4.72-11.91 7.06-7.52 4.41-14.86 8.9-22.71 12.92q-8.53 4.38-16.21 8.15-9.17 4.51-26.14 11.62-3.28 1.38-6.36 2.62-6.19 2.5-12.55 4.65c-7.57 2.55-15.15 4.58-22.7 7.14q-5.3 1.79-10.8 3.15-36.93 9.1-77.98 10.55c-10.78.38-21.81-.52-32.74-1.42q-24.5-2.02-49.07-8.16-7.01-1.75-13.73-4.11M338.36 677.79q0 .64-.64.65l-20.29.11q-1 0-1 1.01l.07 34.96a.77.77 0 0 0 .77.77l20.42-.01a.67.66 90 0 1 .66.67q-.06 44.32.04 90.63c.02 11.88 1.88 26.3 8.78 35.72q2.26 3.1 6.78 6.63 3.58 2.79 8.14 4.42 12.93 4.64 25.2 3.1c7.43-.93 15.4-3.6 22.26-6.69q1.4-.63 1.59-2.18 2.08-17.02 4.05-34.29.11-.96.05-1.95a.48.47-15.2 0 0-.69-.39c-3.09 1.58-5.35 4.18-8.54 5.46q-7.84 3.16-14.49 3.03c-10.1-.19-13.06-7.29-13.06-15.82q0-43.92-.02-87.8-.01-.53.53-.53l33.26-.01a.77.76 0 0 0 .77-.76l.02-34.82q0-1.13-1.13-1.14-14.8-.11-28.91-.06-2.21.01-4.42-.26-.53-.07-.44-.59.27-1.54.28-2.69.2-32.64 0-63.35a.93.92-13.4 0 0-1.34-.82l-37.22 18.64a2.8 2.79 76.8 0 0-1.54 2.5l.06 45.86m150.47 11.01a.55.55 0 0 1-.96-.32c-.72-9.65.32-19.84.34-28.64q.04-21.14-.06-47.34-.01-1-.38-1.51-.35-.49-.73-.3l-37.45 18.73a2.82 2.81-13.4 0 0-1.55 2.51l.01 219.92a1.21 1.21 0 0 0 1.2 1.21l37.83.04a1.13 1.13 0 0 0 1.13-1.13q.02-62.03-.02-123.55 0-2.62 1.73-4.62 3.96-4.59 7.85-7.47c6.29-4.68 16-6.33 23.07-2 2.35 1.44 3.37 4.14 3.88 6.71 1.42 7.18 2.06 14.2 2.05 21.75q-.07 53.67-.03 109.52a.75.74 0 0 0 .75.74l38.47.02a.72.72 0 0 0 .72-.72q.02-54 .02-112.08c0-6.04-.39-12.08-.78-18.09q-.69-10.63-3.55-20.59-2.82-9.79-9.7-16.24-5.09-4.78-11.3-7.23-7.91-3.13-13.89-3.35-6.55-.25-12.76 0-3.54.14-6.97 1.66c-7.13 3.16-13.72 6.37-18.92 12.37m784.8 79.55q-.24 10.86-1.89 21.19c-1.22 7.68-5.47 17.31-13.07 20.87-6.77 3.17-16.91 4.99-24.76 2.74-6.66-1.91-12.5-5.33-15.82-11.66-3.32-6.33-6.18-12.06-7.86-19.37q-3.64-15.85-4.14-36.52c-.43-18.01.11-35.23 3.53-52.82q2.45-12.61 8.95-22.41 6.64-10.03 18.36-11.11 19.78-1.81 29.36 15.12 3.84 6.77 6.12 13.93a.66.65 72.3 0 0 .82.43l37.8-11.89a1.2 1.2 0 0 0 .79-1.48q-4.08-13.99-11.01-26.94c-2.88-5.36-7.04-9.22-10.77-13.47-4.13-4.71-9.98-7.72-15.48-10.73-11.64-6.37-24.57-7.68-38.19-7.19q-14.02.5-23.6 5.25-7.46 3.7-15.02 9.38c-4.05 3.04-6.92 7.51-10.41 11.25q-2.87 3.08-5.32 7.54c-3.71 6.72-6.32 12.93-9.1 19.67q-1.74 4.22-2.83 8.22c-5.99 21.98-7.4 44.84-6.81 67.73q.66 25.53 6.62 48.72c1.42 5.53 3.78 10.38 5.83 15.63 5.38 13.77 14.39 26.44 26.6 35.02 8.87 6.24 19.53 9.49 30.56 10.92q8.63 1.12 18.93-.42 10.28-1.54 18.93-4.6 5.11-1.81 11.74-5.76c4.45-2.65 7.51-6.56 11.17-10.09q3.32-3.19 5.83-7.27 3.29-5.36 4.57-8.34 2.48-5.8 4.73-12.42c3.72-10.98 5.08-22.97 5.26-34.14q.33-21.05.06-44.6-.01-.79-.8-.79l-72.24-.06a.81.81 0 0 0-.81.81l-.05 37.63q0 1.11 1.11 1.12l31.49.06q.84.01.82.85M60.74 770.1c17.64.63 34.89.18 51.43-6.56q5.11-2.08 11.17-6.45 7.93-5.7 10.54-8.61 3.77-4.2 9.21-12.27c6.54-9.72 9.41-22.01 10.14-33.65.77-12.14 0-24.88-3.62-36.9-2.13-7.05-5.6-13.54-9.88-19.37q-9.14-12.45-23.01-18.5-11.58-5.05-22.98-6.67-7.18-1.03-19.55-.95-26.87.17-56.16.08a.76.76 0 0 0-.76.76v231.28a.77.76 0 0 0 .77.76l40.21.04q1.25 0 1.25-1.26l.03-80.56q0-1.22 1.21-1.17m191.32 73.34q.78.06.7.57-.69 4.4-.43 8.35a.71.71 0 0 0 .71.67l38.25.06a.98.97 0 0 0 .99-.98q-.1-56.88.03-116.64.02-10.82-.76-16.9c-2.17-16.71-9.88-32.1-26.57-38.56q-6.74-2.6-11.53-3.56-18.73-3.74-37.02-.05-17.48 3.53-33.49 13.63-1.17.74-2.06 1.73a1 .99-38.4 0 0-.14 1.15c2.08 3.91 4.62 7.36 6.63 11.18q4.23 8.03 9.04 16.72a.56.55-31.3 0 0 .79.19c7.3-4.93 13.82-8.51 22.78-9.77 6.74-.95 13.45-1.45 20.26.1 6.82 1.56 9.48 7 11.26 13.13 1.65 5.69.74 12.45 1 18.36a.63.63 0 0 1-.96.56q-7.39-4.44-15.99-5.2c-10.55-.95-21.72-1.05-31.34 2.65q-5.67 2.18-8.73 4.21c-5.16 3.42-11.34 8.49-14.7 13.63q-4.59 7.03-6.75 13.83c-3.1 9.78-4.72 20.28-3.54 30.73q.91 8.12 2.68 15.26 4.69 18.96 19.89 29.89c5.02 3.62 11.75 6.03 17.62 7.56 5.75 1.51 15.37 1.74 20.8-.28q3.47-1.29 7.27-2.87c4.94-2.08 8.98-5.3 12.67-9.1a.84.82 23.1 0 1 .64-.25m615.49.89-.1 7.78a.91.9.6 0 0 .91.92l37.87.07a1.29 1.29 0 0 0 1.29-1.29q-.1-59.09.03-118.32c.03-12.27-1.35-22.3-5.65-32.69-1.69-4.08-4.42-7.17-7.09-10.58-2.56-3.28-6.12-6.17-9.8-7.98-13.01-6.4-25.75-8.1-40.03-7.52q-16.56.66-32.67 7.81-5.96 2.65-12.63 6.41-2.18 1.23-3.56 2.79a1.31 1.3 49.8 0 0-.13 1.56q8.31 13.36 15.37 27.4.25.51.73.21c6.61-4.14 12.9-7.78 20.61-9.24q11.13-2.11 20.38-.81c7.99 1.14 11.25 5.66 13.44 12.95 1.73 5.76.84 12.81 1.01 18.93a.62.62 0 0 1-.94.54c-9.55-5.7-20.52-5.77-31.6-5.48q-11.25.29-22.49 6.08-2.42 1.25-4.36 2.99c-3.19 2.86-6.79 4.87-9.5 8.21-5.11 6.28-8.88 14.57-11.17 22.41q-1.62 5.56-2.05 12.52-.79 13 1.69 25.12c.78 3.78 2.56 7.48 3.87 11.14 3.65 10.2 11.39 18.84 20.67 24.36 3.06 1.81 6.22 2.62 9.44 3.85 8.17 3.11 19.36 3.81 27.75.45 7-2.81 12.35-5.43 17.47-11.08q1.27-1.41 1.24.49m519.99-156.22q-1.03.83-.99-.49l.21-7.84q.04-1.27-1.23-1.27l-38.06-.01q-.95 0-.95.95l.01 172.71a.89.88 90 0 0 .88.89h38.05q1.21 0 1.2-1.2-.06-59.97-.03-120.47.01-4.43 3.62-7.7 3.81-3.45 7.72-6.35c8.43-6.23 23.21-4.49 31.4 1.74q1.9 1.43 4.04 2.93a1.2 1.2 0 0 0 1.84-.65l10.68-37.54a.48.46-66.9 0 0-.2-.52c-4.21-2.55-8.69-5.28-13.37-6.95-4.74-1.69-9.69-1.75-14.8-1.74-7.52.02-12.4 1.98-18.78 5.75q-6.18 3.67-11.24 7.76m166.76-7.35c-7.04-3.2-13.59-5.69-21.06-5.96-5.87-.21-12.47-.52-18.1.72q-11.35 2.51-21.54 8.84-7.63 4.75-13.52 12.49-6.29 8.28-9.42 15.2c-6.66 14.73-9.42 33-10.11 50.93q-.31 8.08.96 19.8 1.92 17.71 6.5 30.6c2.51 7.06 6.07 13.06 10.26 19.15q10.28 14.94 28.44 20.73 10.77 3.44 19.44 3.56c11.95.17 28.46-4.64 37.88-12.59q4.17-3.52 7.95-7.52c4.53-4.8 7.64-10.89 10.74-16.78 6.76-12.84 9.48-29.49 10.11-43.79q.39-8.66.16-18.07-.52-20.6-6.5-38.48c-1.6-4.76-4.15-8.96-6.37-13.42-3.72-7.5-9.35-13.85-15.69-19.13q-4.45-3.71-10.13-6.28m260.94 165.31q0-3.09 2.18-.9c5.72 5.74 13.15 8.93 21.05 10.83 12.58 3.01 27.93-2.53 37.2-10.59 3.31-2.87 5.81-6.91 8.48-10.54q3.07-4.17 4.84-8.38c5.47-12.98 7.85-26.8 9.19-41.15.84-9.1.63-18.05.63-27.1-.01-9.55-.9-19.87-2.32-29.28q-1.63-10.78-5.11-21.26-2.01-6.09-4.32-9.63-2.27-3.48-4.89-7.09c-2.51-3.45-5.65-6.85-9.21-9.03-4.96-3.03-10.88-6.29-16.78-6.92-6.91-.73-14.5-1-21.19 1.79q-10.55 4.4-16.96 10.19-.95.86-2.2 1.23a.52.52 0 0 1-.67-.51l.16-8.06q.03-1.17-1.15-1.17l-38.58.03q-.87 0-.68.85c.13.6.35 1.15.35 1.79q-.03 117.42.03 234.95 0 .52.52.48 1.85-.13 3.26-.88 9.4-5.03 18.45-9.51c5.57-2.76 11.55-5.37 17.09-8.4q.64-.35.64-1.08l-.01-50.66M715.06 778.52q-3.3-18.57-7.09-36.52c-1.63-7.72-3.69-15.06-5.35-22.96q-4.19-19.96-8.27-39.36-.24-1.15-1.42-1.15l-26.38-.04a1.25 1.24 9.5 0 0-1.18.83q-1.07 3.06-1.58 5.42-4.89 22.7-10.3 48.17-1.64 7.7-3.73 16.67-1.93 8.33-3.53 16.78c-.93 4.94-2.09 9.99-2.12 14.92q-.01 2.5-.73.11c-.41-1.34-.89-2.82-1.08-4.21q-2.01-14.91-4.52-28.36c-4.31-23.11-8.06-46.68-11.72-69.02q-.21-1.29-1.52-1.29h-34.02q-1.45 0-1.13 1.42l37.95 171.79q.28 1.28 1.59 1.29l27.13.12a1.46 1.46 0 0 0 1.45-1.2q2.76-14.83 6.01-30.29.66-3.15 1.41-6.65 7.35-34.31 13.07-68.6c.26-1.56.38-3.1.47-4.68q.04-.7.55-.22.74.7.89 1.63 4.88 29.91 11.41 59.58 1.17 5.31 2.2 10.08 4.13 19.25 8.04 39.51a.97.97 0 0 0 .95.79h27q1.84 0 2.33-1.78 2.49-9.09 4.73-19.79 3.67-17.61 7.5-35.68c1.52-7.14 3.57-14.4 5-21.23q4.82-23.03 10.38-47.8.79-3.54 1.6-7.09 4.36-19.33 8.66-39.74.3-1.45-1.17-1.45l-33.56-.02a1.7 1.69-83.8 0 0-1.65 1.34q-.81 3.82-1.52 7.91c-4.72 27.36-9.27 57-14.19 83.52q-.66 3.62-.9 7.16-.46 6.87-1.66.09m285.9 17.3a.34.34 0 0 1-.54-.2c-.46-2.33-1.27-4.43-1.73-6.81q-2.44-12.43-5.74-25.84-5.58-22.67-10.96-45.1c-.78-3.25-2.19-6.95-2.87-9.75q-3.33-13.75-6.97-29.27-.09-.36-.46-.36l-40.41.03q-.93 0-.69.9 3.43 12.72 7.38 25.04 3.71 11.58 5.9 19.08 3.38 11.54 6.37 22.01c1.14 3.97 2.9 7.98 4.05 11.99q4.5 15.73 9.62 33.23c1.31 4.48 3.08 8.8 4.38 13.24q5.38 18.38 10.72 36.69 1 3.43 2.48 7.12a5.05 5.01-46.5 0 1 .08 3.5q-1.92 5.55-3.23 10.51-4.81 18.27-9.48 36.13c-1.3 4.96-3.35 9.83-4.47 14.94q-.25 1.11.89 1.11l35.22-.01a1.12 1.1 5.7 0 0 1.09-.88q1.8-8.6 4.62-17.49c4.7-14.84 8.58-30.02 12.44-44.66 1.36-5.17 3.42-10.35 4.83-15.58q4.69-17.36 9.72-35.93c1.15-4.24 2.83-8.45 3.97-12.6 3.58-13.16 6.89-25.96 10.87-39.44q6.34-21.47 11.73-42.52c1.57-6.16 4.22-12.08 5.59-18.46q.77-3.57 2.11-6.72.52-1.2-.79-1.2l-39.42-.02q-1.34 0-1.58 1.31c-2.09 11.45-5.42 22.7-7.82 34.19q-4.75 22.8-10.19 47.3-3.2 14.42-5.69 27.96-.55 2.98-.61 5.83-.01.23-.13.43-.12.17-.28.3m699.16 47.12-.18 8.77a.78.78 0 0 0 .78.79l38.66.04a.67.66 90 0 0 .66-.67l-.03-172.12q0-1.25-1.26-1.25l-37.94.01q-.8 0-.8.8.02 60.6.02 121.77c0 2.48.02 4.34-1.76 6.23q-2.83 2.98-7.7 6.81-4.42 3.49-8.44 4.61-8.64 2.4-16.38-2.58-.85-.54-1.26-1.5-3.41-8.02-3.43-17.12-.09-62.04 0-117.97.01-1.05-1.05-1.05l-38.08-.01q-1.03 0-1.03 1.03.05 56.57-.01 113.93c-.01 9.24.62 18.25 2.02 27.11q1.84 11.66 9.73 22.82 1.9 2.7 4.79 4.67 9.16 6.24 20.42 7.93 6.97 1.05 9.9.92c11.97-.51 22.44-6.47 31.66-14.31a.43.43 0 0 1 .71.34M178.22 973.87l.03-25.13q0-.8-.71-.44l-12.31 6.21a.55.54-14.8 0 0-.3.5l.02 74.3a.6.6 0 0 0 .61.6l12.15-.04a.52.52 0 0 0 .52-.51q.07-20.5-.02-40.34c-.02-3.74 4.63-6.22 7.61-6.52 5.11-.53 5.85 3.59 5.86 7.48q.07 18.86.02 39.54a.37.37 0 0 0 .37.37h12.41a.51.51 0 0 0 .51-.5q.04-20.04-.01-39.41c-.01-7.57-1.19-17.02-9.93-19.31-6.5-1.7-11.09-.42-16.09 3.56q-.74.58-.74-.36m361.73-25.06a.54.54 0 0 0-.78-.48l-12.32 6.13a.54.54 0 0 0-.3.48l.01 74.42a.54.54 0 0 0 .54.54l12.28-.03a.54.54 0 0 0 .54-.54l.03-80.52m227.72 34.95 10.34-.01q.76 0 .76-.76l-.01-11.24q0-.76-.76-.75l-10.49.01a.51.5 0 0 1-.51-.5l-.02-21.79a.47.47 0 0 0-.68-.42l-12.08 6.04a.93.93 0 0 0-.51.83l.01 15.36a.5.5 0 0 1-.5.5l-6.31-.05q-.63-.01-.63.62l-.02 11.41a.75.74.4 0 0 .75.75l6.05-.02a.66.66 0 0 1 .66.66q-.02 15.63 0 30.28c.01 7.54 2.49 15.16 11.2 16.18q6.88.81 12.59-2.11.53-.26.6-.85l1.37-11.6q.11-.9-.62-.37c-3.9 2.86-11.9 4.78-11.88-2.97q.04-14.55 0-28.5-.01-.7.69-.7m36.07-9.36a.29.28 73.4 0 1-.44-.24v-25.61a.36.36 0 0 0-.53-.32l-12.26 6.21q-.48.24-.48.77v74.02a.7.7 0 0 0 .7.7l12.09-.03a.47.46 90 0 0 .46-.47l.03-41.38q0-.64.38-1.15c3.99-5.25 13.09-7.43 13.08 2.26q-.01 22.17.01 40.09a.62.62 0 0 0 .62.62l11.95.04a.64.63 0 0 0 .64-.63q.14-22.6-.03-42.75c-.06-7.1-2.81-14.4-10.68-16.08q-6.21-1.33-10.79.86c-1.8.86-3.13 2.04-4.75 3.09m245.51-.62v-25.03a.49.48 76.9 0 0-.7-.44l-11.97 6.01a1.31 1.3 76.8 0 0-.72 1.17l.01 73.76q0 .62.63.63l12.17.03a.58.57 90 0 0 .57-.58l.01-41.56a1.39 1.31-28.4 0 1 .26-.79c2.98-4.21 11.85-7.78 12.91.06q.24 1.82.24 3.59.04 19.79.01 38.79a.47.47 0 0 0 .47.47l12.13-.02q.71 0 .72-.72.04-20.56-.03-40.54c-.03-7.75-1.93-16.04-10.51-18.07q-9.06-2.14-15.31 3.63-.89.82-.89-.39m124.43 17.63q-.48.82-.48-.13l.08-42.52q0-.78-.7-.43l-11.92 5.89q-.69.34-.69 1.12l.01 74.12a.48.48 0 0 0 .48.48l12.1-.05q.64 0 .65-.64.07-7.8.03-15.75c-.01-3.31 3.05-6.99 4.81-9.75a.33.32 52.7 0 1 .58.08l8.28 25.57a.74.74 0 0 0 .71.52h12.66a.54.54 0 0 0 .51-.72l-12.85-37.91a2.32 2.3 52.8 0 1 .27-2.02l11.74-17.7a.48.47 16.7 0 0-.4-.73l-13.47.03a.85.83 14.7 0 0-.73.42l-11.67 20.12m76.39-42.56a.54.54 0 0 0-.78-.48l-12.23 6.08a.54.54 0 0 0-.3.48l.01 74.41a.54.54 0 0 0 .54.54h12.19a.54.54 0 0 0 .54-.54l.03-80.49m26.38-.04a.53.53 0 0 0-.77-.47l-12.24 6.07a.53.53 0 0 0-.29.48l.02 74.51a.53.53 0 0 0 .53.53l12.21-.03a.53.53 0 0 0 .53-.53l.01-80.56m212.79 78.15-.01 2.23q-.01.72.71.72h12.12a.47.46-90 0 0 .46-.47l.01-80.76a.42.42 0 0 0-.61-.38l-12.29 6.23a.69.69 0 0 0-.39.62l.01 18.12a.43.43 0 0 1-.71.33c-7.63-6.56-18.16-3.97-23.02 4.67q-2.32 4.12-3.18 8.77-2.82 15.21.47 29.66 1.09 4.81 3.77 8.52c5.23 7.24 15.67 7.8 21.89 1.43a.45.45 0 0 1 .77.31m222.35-35.53a.32.32 0 0 1-.6-.16l.14-42.76a.32.32 0 0 0-.46-.29l-12.71 6.27a.32.32 0 0 0-.18.29l.01 74.84a.32.32 0 0 0 .32.32l12.62-.06a.32.32 0 0 0 .32-.32l.05-17.99a.32.32 0 0 1 .05-.17l4.72-7.66a.32.32 0 0 1 .57.07l8.45 25.91a.32.32 0 0 0 .3.22l13.24-.04a.32.32 0 0 0 .3-.42l-13.24-39.1a.32.32 0 0 1 .04-.28l12.4-18.75a.32.32 0 0 0-.27-.5l-14.08.02a.32.32 0 0 0-.28.16l-11.71 20.4m-1325.81-34.4a8.44 8.44 0 0 0-8.44-8.44 8.44 8.44 0 0 0-8.44 8.44 8.44 8.44 0 0 0 8.44 8.44 8.44 8.44 0 0 0 8.44-8.44m182.76.01a8.44 8.44 0 0 0-8.44-8.44 8.44 8.44 0 0 0-8.44 8.44 8.44 8.44 0 0 0 8.44 8.44 8.44 8.44 0 0 0 8.44-8.44m656.4-.01a8.43 8.43 0 0 0-8.43-8.43 8.43 8.43 0 0 0-8.43 8.43 8.43 8.43 0 0 0 8.43 8.43 8.43 8.43 0 0 0 8.43-8.43m-1069.83 53.7-11.34-4.78q-.65-.28-.83.41c-1.54 5.66-4.87 12.15-12.05 10.22-6.29-1.69-8.16-11.89-8.64-17.31-.67-7.76-2.02-39.36 13.52-34.48 3.66 1.15 5.36 5.69 6.12 9.12a.51.5-15.2 0 0 .65.37l12.23-3.98q.6-.2.44-.82c-2.86-10.83-8.97-18.76-20.95-19.21-20.11-.75-26.01 20.32-26.75 36.08-.74 15.66 2.26 41.23 21.67 44.37 14.23 2.3 22.53-6.66 26.22-19.38a.52.51 19.7 0 0-.29-.61m85.44-18.1q-5.63-2.5-11.56-1.58-12.08 1.87-14.76 13.98c-1.96 8.85.48 20.59 9.6 24.52q9.3 4.01 16.44-2.52.93-.85.93.42l-.01 1.52q-.01.79.78.79l11.98-.02a.56.56 0 0 0 .56-.56q.01-19.24-.01-41.27c-.01-11.98-6.95-17.69-18.53-17.92q-9.77-.2-17.95 5.07-.94.6-.39 1.57l4.56 8.11q.37.67 1.03.26 5.55-3.49 11.98-3.13c5.96.34 6.43 5.62 5.99 10.38q-.06.64-.64.38m39.17-18.68.05-2.11q.02-.7-.68-.7l-12.17.02a.42.42 0 0 0-.42.42l.01 57.59a.65.65 0 0 0 .65.65l11.95.08a.63.63 0 0 0 .63-.63l.01-41.1a2.46 2.45-25.3 0 1 .56-1.56c3.63-4.46 12.76-7.23 12.83 1.84q.12 16.85.11 40.81a.63.63 0 0 0 .63.63l12.13.02a.46.46 0 0 0 .46-.46q.11-20.87-.05-42.13c-.06-6.7-2.15-14.25-9.19-16.43q-9.71-3.01-16.73 3.41-.8.73-.78-.35m64.39 52.75q2.46 12.33-15.02 14.66a.3.3 0 0 0-.24.4l3.45 9.43q.07.17.25.16 4.99-.42 10.6-2.23c11.33-3.66 14.55-12.42 14.55-23.38q.01-27.06.01-53.94a.66.66 0 0 0-.66-.66l-11.96.01q-.52 0-.6.51l-.28 1.85a.32.32 0 0 1-.54.19q-5.06-4.68-12.09-3.5c-17.11 2.87-16.36 30.6-14.37 43.11 1.18 7.38 4.91 16.32 13.46 17.53q7.58 1.07 12.95-4.29a.29.29 0 0 1 .49.15m66.95-52.76q-1.51 1.33-1.19-.66.14-.88-.15-1.71-.15-.43-.6-.42l-12.29.01a.31.31 0 0 0-.31.31l-.01 57.73a.7.69 90 0 0 .69.7h11.87a.71.71 0 0 0 .71-.71q.02-23.12.02-40.53c-.01-2.93 4.02-5.35 6.25-5.91 6.35-1.58 7.17 2.81 7.19 7.87q.08 16.69.02 38.35a.97.96-90 0 0 .96.97l11.97-.04a.31.31 0 0 0 .31-.31q.04-20.48-.01-42.12c-.02-6.5-2.06-14.25-8.82-16.46q-9.72-3.17-16.61 2.93m63.45 54.95q-.36 1.85-.73 3.7-.81 4.08-4.56 5.86-4.38 2.1-9.54 2.77a.73.73 0 0 0-.59.97l3.12 8.58a.86.86 0 0 0 .9.56c13.77-1.47 24.41-7.36 24.55-22.86q.17-18.37.07-56.62 0-.69-.69-.69l-11.83-.02q-.64 0-.67.64l-.06 1.24q-.06 1.21-.97.41-4.36-3.85-10.42-3.41c-18.67 1.36-17.72 30.96-15.85 43.09 1.02 6.61 3.99 14.2 10.5 16.89 4.66 1.93 10.99 1.13 14.67-2.29q2.87-2.66 2.1 1.18m163.97-23.29 28.32-.06a.61.6 2 0 0 .61-.56c.72-10.76-1.02-23.31-9.1-30.55-5.07-4.53-12.69-5.58-19-3.33-8.94 3.18-13.34 12.47-14.55 21.6-2.18 16.52 2.03 39.25 23.41 38.3 7.25-.33 13.49-4.12 17.26-10.25a.57.57 0 0 0-.14-.75l-8.52-6.34a.74.73-53.1 0 0-1.02.15c-1.65 2.18-3.67 3.97-6.48 4.4-8.1 1.26-10.89-5.11-11.58-11.75a.79.78-2.9 0 1 .79-.86m57.37 2.79c6.9 3.59 4.44 10.67-3.33 9.96q-6.55-.59-12.42-4.79-.55-.4-.81.23l-4.3 10.26q-.21.5.21.85c10.39 8.66 33.61 9.9 37.1-7.41q2.94-14.54-9.72-21.25c-3.68-1.95-8.24-3.66-11.43-6.29-3.94-3.26-.9-7.48 3.42-7.31q6.14.24 11.24 3.24a.84.84 0 0 0 1.2-.4l4.04-9.43a.9.9 0 0 0-.33-1.1q-7.07-4.74-15.52-4.97c-12.15-.34-20.06 7.61-18.64 19.88 1.28 11.02 10.69 14.04 19.29 18.53m159.6-34.08a.51.51 0 0 1-.73-.65q.51-1.09.14-1.99-.25-.6-1.03-.58-6.18.23-11.7.03a.44.44 0 0 0-.46.44l.02 57.71q0 .59.58.59l12.18.02a.5.5 0 0 0 .5-.5q.02-19.62.01-40.11 0-1.49 1.11-2.71c4.04-4.46 10-4.4 14.55-.83a.41.41 0 0 0 .65-.2l3.5-11.81a1.14 1.14 0 0 0-.53-1.32q-8.25-4.66-15.44-.49c-1.23.72-2.18 1.7-3.35 2.4m46.35-4.28c-12.5-.73-20.45 7.89-22.83 19.37-2.35 11.33-1.79 26.61 6.39 35.47 6.38 6.92 17.18 7.99 25.01 3.54 13.34-7.58 13.81-29.38 10.32-41.69-2.56-9.06-9.13-16.11-18.89-16.69m108.17 3.44a.37.37 0 0 1-.62.22c-6.5-6.12-16.95-4.42-21.8 2.77q-4.21 6.25-5.12 15.49c-1.14 11.56-1.48 37.52 14.85 38.99q7.08.64 12.12-4.32a.43.42 68.2 0 1 .72.31c-.01 5.99-1.08 10.25-7.26 12.43q-3.85 1.35-7.49 1.85a.76.76 0 0 0-.61 1.01l3.15 8.66a.73.72-12.7 0 0 .76.48q6.46-.72 12.38-3.09c10.09-4.05 12.43-13.26 12.42-23.26q-.02-26.72-.02-53.25 0-.61-.61-.61l-11.91.01q-.67 0-.75.66l-.21 1.65m125.25 42.93c-3.93 4.91-14.82.02-18.81-2.83q-.56-.41-.83.23l-4.28 10.29a.8.78 29.8 0 0 .26.93q10.57 7.93 23.67 5.44c10.89-2.07 15.6-12.05 13.44-22.39-1.81-8.67-10.17-12.39-17.68-15.85-2.74-1.26-6.88-4.05-4.69-7.55 2.77-4.42 12.53-.7 16.04 1.3a.61.61 0 0 0 .86-.29l4.17-9.62q.3-.68-.32-1.1c-8.1-5.38-19.94-7.3-27.94-1.48q-5.87 4.28-6.35 11.92c-.89 14.04 8.55 17.46 18.88 22.73 3.13 1.6 6.32 4.84 3.58 8.27m168.55-26.38c-3.76-2.7-1.67-7.19 2.58-7.31q6.17-.18 12.04 3.19a.77.77 0 0 0 1.09-.37l4.08-9.58q.25-.57-.27-.92c-7.22-4.86-17.06-6.84-24.89-3.33q-8.53 3.82-9.4 13.28c-1.29 13.96 8.35 18.07 18.92 23.17q2.66 1.28 3.82 3.29c1.42 2.45.3 5.56-2.44 6.44-5.3 1.68-12.07-1.06-16.61-4.21q-.67-.47-.99.29l-4.2 10.07a.85.85 0 0 0 .26 1q8.06 6.27 18.96 6c9.18-.23 16.69-4.93 18.25-14.33 1.8-10.86-3.14-17.67-12.49-21.83q-5.08-2.26-8.71-4.85m82.29 37.22-.07 1.74q-.03.78.75.78l12-.01a.58.58 0 0 0 .58-.58q.14-30.41-.02-41.45-.25-16.29-16.2-17.62-11.47-.95-20.65 5.28a.66.66 0 0 0-.2.87l4.85 8.62a.59.58 58.7 0 0 .83.21q5.02-3.28 11.36-3.29c6.88-.01 6.88 5.52 6.84 10.58a.32.32 0 0 1-.44.3q-7.41-3.14-14.82-.99c-10.98 3.18-13.98 14.98-11.7 25.31q1.81 8.18 7.6 11.54 10.12 5.88 18.57-1.63.75-.68.72.34m39.63-53.25q-1.71 1.15-1.07-.81.28-.86-.1-1.62-.2-.41-.66-.41l-12.07.04a.52.52 0 0 0-.52.52l.02 57.36q0 .78.78.79l12.1.06a.47.46 0 0 0 .47-.46l.02-41.16c.01-2.8 4.51-5.21 6.62-5.65 5.92-1.25 6.71 3.12 6.72 7.9q.06 18.64.03 38.63a.73.73 0 0 0 .73.73l11.82.01a.77.77 0 0 0 .77-.76q.13-20.68-.01-41.47c-.06-7.74-2.57-15.78-11.38-17.37q-5.87-1.06-10.34.99c-1.49.69-2.61 1.79-3.93 2.68m206.72-2.54q-9.9-3.82-18.84 1.72c-7.7 4.78-10.77 15.08-11.25 24.1-.58 11.18 1.49 23.67 10.29 30.11 7.83 5.72 19.64 4.64 26.22-2.08 9.46-9.68 9.75-28.23 5.83-39.96q-3.5-10.5-12.25-13.89m38.04 2.53.06-2.14q.02-.69-.67-.69l-12.2.03a.43.43 0 0 0-.42.43l.01 57.82a.45.45 0 0 0 .45.45l12.35-.01a.45.45 0 0 0 .45-.45q.04-19.34 0-39.98 0-1.8 1.34-3.11 6.17-5.98 14.05-.89.83.54 1.11-.41l3.34-11.33a1.14 1.13 23.4 0 0-.52-1.3q-9.99-5.72-18.67 1.9-.71.63-.68-.32m-1286.42-2.56a.43.43 0 0 0-.43-.43h-12.42a.43.43 0 0 0-.43.43v58.04a.43.43 0 0 0 .43.43h12.42a.43.43 0 0 0 .43-.43v-58.04m182.75.16a.59.59 0 0 0-.59-.59h-12.1a.59.59 0 0 0-.59.59v57.74a.59.59 0 0 0 .59.59h12.1a.59.59 0 0 0 .59-.59v-57.74m40.18-.56a.35.35 0 0 0-.34.28l-8.48 41.15a.35.35 0 0 1-.68 0l-8.5-41.16a.35.35 0 0 0-.35-.28h-12.76a.35.35 0 0 0-.34.44l14.86 58.22a.35.35 0 0 0 .34.26l13.94-.02a.35.35 0 0 0 .34-.26l14.88-58.23a.35.35 0 0 0-.34-.44l-12.57.04m351.43 55.83-.09 2.25a.81.8 1 0 0 .81.83l11.92-.01q.7 0 .7-.7l-.01-57.58a.64.64 0 0 0-.64-.64l-12.07-.01q-.52 0-.52.53-.1 18.96-.06 37.98c0 1.71.35 4.11-.97 5.45q-3.44 3.49-7.24 3.65c-3.33.13-5.14-2.3-5.16-5.36q-.15-19.28-.11-41.55 0-.68-.69-.68l-12-.02a.61.61 0 0 0-.61.61q0 19.87.02 40.89c0 7.87 2.08 16.32 11.03 18.14q9.08 1.84 14.98-4.08a.42.41-22 0 1 .71.3m264.84-55.34a.51.51 0 0 0-.51-.51h-12.3a.51.51 0 0 0-.51.51v57.9a.51.51 0 0 0 .51.51h12.3a.51.51 0 0 0 .51-.51v-57.9m343.97 22a.19.19 0 0 1 .38 0l7.35 35.98a.56.56 0 0 0 .55.45l9.08-.01a.64.63-83.8 0 0 .62-.5l12.75-57.62q.17-.8-.64-.8l-10.9-.02a.72.71-84.6 0 0-.7.59l-5.66 33.13q-.23 1.3-.5.01l-7.05-33.08q-.14-.64-.8-.64h-8.24q-.62 0-.77.6-4.21 18.02-7.09 33.42-.27 1.46-.52-.01l-5.73-33.41q-.11-.61-.72-.61l-10.88.01q-.8 0-.63.78l12.75 57.63a.68.66 83.5 0 0 .65.53l8.7-.04a.99.98-84.2 0 0 .96-.79l7.04-35.6"/><path d="m59.57 662.3-.12 65.8a.97.97 0 0 0 .97.98l21.39.03a29.35 29.28-89.9 0 0 29.33-29.29l.02-9.04a29.35 29.28-89.9 0 0-29.23-29.41l-21.39-.03a.97.97 0 0 0-.97.96m162.5 110.31c-7.23 3.68-11.67 13.01-12.06 20.83q-.64 12.52 6.27 22.09 3.24 4.49 9.48 5.49 10.35 1.66 18.66-4.58 1.81-1.36 6.53-7.33c.92-1.16 1.45-2.58 1.44-4.04q-.12-11.24.08-22.99c.04-2.16-1.08-3.57-2.82-4.66q-3.82-2.41-7.42-4.15-4.5-2.17-12.69-2.14-4.62.02-7.47 1.48m618.82-1.15c-4.53.62-8.39 4.24-11.4 8.31-5.25 7.1-5.15 18.71-2.84 26.84q1.33 4.7 4.79 8.99c6.72 8.34 19.7 6.78 27.66 1.24q2.08-1.44 5.01-5.08c2.09-2.61 3.39-3.88 3.38-6.74q-.03-12.01.01-24.11c.01-1.78-1.57-2.66-2.83-3.59q-10.46-7.65-23.78-5.86m707 30.7q3.93-12.06 4.7-24.38 1.31-21.09-1.65-37.15c-1.82-9.79-4.47-17.71-11.53-24.22-5.97-5.49-14.57-5.62-21.89-2.75-6.54 2.57-10.79 10.77-12.52 17.09q-9.21 33.71-.2 67.9c2.1 7.98 6.43 16.27 14.2 19.26 6.27 2.42 14.33 2.33 19.5-2.27 4.12-3.64 7.62-8.07 9.39-13.48m297.53 16.48c8.45-2.37 11.21-17.2 12.17-24.39.67-5.07 1.38-10.13 1.4-15.21.04-11.61.59-24.08-.66-35.33q-.91-8.2-2.45-15.54c-1.03-4.89-3.53-11.62-8.06-14.21-7.65-4.38-18.17-1.42-24.33 4.19-2.91 2.66-8.25 7.01-8.25 11.11q0 37.65.01 73.4 0 1.91 1.39 3.29c4.02 3.99 8.79 9.52 13.85 11.55q7.81 3.13 14.93 1.14m-370.33 191.63c.49 4.38 2.32 9.61 8.02 7.99q3.48-.98 5.7-3.92a2.17 2.16 63.7 0 0 .44-1.31v-25q0-.52-.3-.94c-2.83-4.06-10.28-7.65-12.72-1.08q-1.2 3.24-1.47 7.61-.54 8.82.33 16.65m-1233.695-1.325a6.46 6.46 0 0 0-6.148-6.757l-1.199-.057a6.46 6.46 0 0 0-6.757 6.149l-.186 3.955a6.46 6.46 0 0 0 6.148 6.757l1.199.057a6.46 6.46 0 0 0 6.757-6.149l.186-3.955m90.235-23.415q-1.32 2.81-1.57 6.47c-.49 7.11-.89 15.34 1.07 22.16 1.94 6.77 8.52 4.58 12.13 1.09q1.19-1.15 1.19-3.04.01-11.39.05-22.42.01-2.58-1.16-3.85c-3.02-3.29-9.21-5.74-11.71-.41m129.62 28.78c2.1 6.45 8.71 4.57 12.13.83q1.15-1.26 1.14-2.91-.09-11.41.01-23.18.02-1.76-1.17-3.1c-3.18-3.54-9.73-5.8-11.97.24q-.79 2.12-1.04 4.34-.96 8.31-.3 17.35.26 3.57 1.2 6.43m177.05-19.53h15.28a.58.58 0 0 0 .58-.58v-.18a12.06 8.14 90 0 0-8.14-12.06h-.16a12.06 8.14-90 0 0-8.14 12.06v.18a.58.58 0 0 0 .58.58m261.27 23.56c9.99.98 9.8-17.34 9.07-23.51-.54-4.58-2.04-10.92-7.35-12.01-4.9-1-7.99 3.14-8.91 7.44-1.4 6.48-3.03 27.09 7.19 28.08m102.89-35.87c-5.93-.72-6.61 7.6-6.84 11.65q-.51 9.19.47 17.02c.4 3.23 1.95 7.58 5.98 7.39q4.56-.22 7.56-4.19a2.59 2.57-26.7 0 0 .52-1.55q-.01-12.1.01-23.87c0-3.66-4.7-6.09-7.7-6.45m383.717 26.306a6.37 6.37 0 0 0-6.143-6.588l-1.3-.046a6.37 6.37 0 0 0-6.588 6.144l-.143 4.098a6.37 6.37 0 0 0 6.144 6.588l1.299.046a6.37 6.37 0 0 0 6.588-6.144l.143-4.098m234.413-24.866c-5.6 4.23-5.25 16.7-4.35 23.52.55 4.09 1.96 8.95 6.13 10.54q2.55.97 5.03-.25c8.09-4.01 6.96-24.76 3.2-31.29-2.03-3.52-6.61-5.09-10.01-2.52"/></g><g fill="#fff"><path d="M1501.6 105.67q-5.78 9.56-2.81 19.6 1.51 5.1 5.22 8.77 8.6 8.54 19.92 11.6 14.37 3.89 31.57 3.52 32.19-.7 65.71-9.26 11.78-3 24.94-6.36 9.22-2.35 19.06-5.81 13.05-4.58 25.38-8.6c7.09-2.32 14-5.43 20.82-7.88q13.2-4.73 26.48-9.98 2.36-.94 4.92-1.94l21.26-8.28q2.21-.86 4.16-.05 8.54 3.54 15.81 8.42c6.95 4.67 14.25 9.13 20.47 14.24 6.2 5.11 13.01 10.49 18.35 16.36 4.03 4.42 8.54 8.14 12.34 12.99q5.84 7.45 10.9 14.31 2.25 3.05 3.86 6.66a1.1 1.09-42.4 0 1-.05.98q-2.22 3.96-5.16 6.18-7.21 5.44-15 10.4c-10.9 6.94-21.96 12.34-33.24 18.14-6.39 3.29-13.19 6.06-19.79 9.14-7.93 3.7-16.03 7.23-24.21 10.05q-5.42 1.88-10.44 4.02c-10.87 4.62-22.33 8.06-33.79 11.29-7.74 2.17-15.11 4.85-22.75 6.73q-30.66 7.56-65.05 11.07-40.71 4.14-79.12-7.97c-10.06-3.17-18.49-8.32-27.82-14.37-4.52-2.94-7.87-6.75-11.86-10.29q-3.28-2.91-5.95-6.39-6.73-8.75-10.08-14.51c-4.84-8.31-7.82-17.56-11-27.08q-2.06-6.17-3.31-13.02-2.49-13.75-3.09-30.25c-.26-7.12-4.35-14.1-10-18.46q-9.92-7.64-19.71-11.87c-10.38-4.49-21.2-7.33-32.24-10.53q-7.7-2.23-15.94-3.78-23.94-4.54-40.97-6.41-15.04-1.66-31.94-3.52-10.45-1.15-19.92-1.83-45.5-3.26-91.12-3.23-7.95.01-15.71-.39-5.27-.28-10.66.07c-10.66.69-21.39.35-32.16.36-9.63.01-19.56.56-29.38.63q-2.46.01-5.2.11-26.25.97-52.56 2.16-9.8.44-19.96 1.2-21.71 1.63-51.03 3.57-42.38 2.82-93.27 7.69c-2.16.21-4.21.83-6.36 1.02q-.83.07-.11-.35 2.09-1.21 4.24-1.69 14.4-3.17 35.71-7.54c7.28-1.49 14.86-3.64 22.2-5.01 19.35-3.62 39.44-7.2 59.15-10.92 28.7-5.42 57.48-9.08 86.14-13.51q10.56-1.64 19.79-2.77 63.23-7.72 126.02-10.77 6.78-.33 13-.68c15.77-.86 31.77-.42 47.57-.39 4.95.01 10.75.51 16.67.7q11.89.39 42.24 3.55 22.42 2.33 43.21 6.9c8.91 1.96 18.11 5.02 26.82 7.9q12.87 4.27 19.86 8.01c6.73 3.59 13.36 7.04 19.6 11.44 6.14 4.33 11.73 10.03 17.05 15.28q1.86 1.83 7.99 11.33c1.69 2.63 2.4 5.74 4.28 8.27q.37.5.05 1.03Z"/><path d="M766.72 120.75q.98-.15 2.02-.16 4.03-.03 9.47-1.12 5.26-1.05 11.58-.96c6.47.1 13.38-.97 20.08-1.72q4.32-.49 8.76-.81 11.83-.85 23.66-2.02 10.33-1.02 19.94-1.75 85.9-6.47 176.53-9.46 8.65-.28 16.25-.22c3.32.02 6.68-.6 9.98-.54 15.27.26 30.7-.72 45.67-.73 13.21 0 26.39-.1 39.82.44 9.59.37 19.25-.04 28.82.59q3.22.21 8.17.31 23.25.46 56.78 2.88 27.7 1.99 55.09 5.58 9.54 1.24 17.86 2.92c17.46 3.52 36.82 7.01 51.95 12.01q5.26 1.74 17.29 6.53 9.41 3.74 16.26 7.91 9.86 6.02 17.07 13.47 7.89 8.15 9.9 18.2c2.14 10.76 4.62 20.19 7.92 31.85q3.3 11.64 7.81 21.78c1.53 3.44 3.76 6.59 5.33 10.13q2.88 6.52 8.41 14.36 12.57 17.82 29.83 30.58 1.66 1.23 6.47 4.25c4.57 2.87 9.26 4.99 13.88 7.53q3.33 1.84 7.24 3.31 14.57 5.51 28.78 8.18c8.37 1.58 16.88 3.41 25.39 4.04q31.46 2.33 62.88-1.09 13.74-1.5 34.84-4.49c17.51-2.49 35.55-5.6 52.8-10.47 10.44-2.95 20.19-5.28 30.52-8.67q6.3-2.07 13.49-4.95 10.47-4.2 21.03-8.66 5.94-2.51 10.9-5.38c4.62-2.68 9.44-4.87 14.06-7.64q12.66-7.6 22.79-15.55 5.05-3.97 11.4-9.57c4.69-4.13 8.35-8.75 12.57-13.08 4.14-4.24 7.12-8.94 10.52-13.58q1.65-2.25 3.83-4.04.42-.35.8.04c3.77 3.79 5.69 10.83 7.03 15.84 3.61 13.46 7.13 27.09 9.5 41.26q3.94 23.58 5.16 46.1.46 8.56-1.38 16.81c-.54 2.43-2.28 4.09-4.37 5.25q-6 3.34-10.72 6.74c-7.19 5.18-15.01 9.18-22.36 13.8q-5.78 3.62-11.9 6.89c-8.77 4.67-17.81 9.74-26.82 13.98q-8.9 4.18-17.72 8.45-4.14 2-8.75 3.81c-5.76 2.25-11.46 4.66-17.33 6.72-3.96 1.38-7.64 3.32-11.58 4.65q-14.08 4.77-32.37 9.79c-3.45.95-6.82 2.22-10.43 3.09q-41.4 9.96-85.83 12.03-11.59.54-30.43-.18-33.19-1.28-70.18-9.45c-11.16-2.47-22.46-6.58-33.57-10.12q-9.89-3.15-22.66-9.07-15.47-7.17-21.5-10.51c-2-1.1-3.84-2.6-5.87-3.78q-11.05-6.39-16.38-10.57-6.32-4.96-12.84-10.48-2.91-2.47-4.84-4.93c-3.74-4.8-7.85-9.43-8.79-15.73q-2.07-13.9-3.76-26.56-2.77-20.9-8.39-40.83c-1.15-4.1-3.32-7.98-4.7-12.15q-.79-2.4-1.84-4.87-4.88-11.54-7.78-15.98c-4.06-6.18-8.04-12.74-12.92-18.43q-8.33-9.72-15.76-16.18-7.06-6.14-18.84-14.07c-6.91-4.66-13.82-7.77-21.02-11.55-8.74-4.59-17.8-8.12-27.25-11.26-7-2.33-13.97-4.99-21.07-6.91-17.02-4.61-31.97-7.39-48.09-10.62q-10.42-2.09-19.71-3.33-23.76-3.18-47.61-5.61-25.43-2.59-52.31-5.59-10.24-1.15-20.09-1.99-64.53-5.5-129-7.8c-6.99-.25-14.1-.24-21.09-.6-13.9-.73-27.81.19-41.72-.71q-4.5-.29-9.03.08c-11.68.94-23.5.1-35.32.6q-9.63.41-20.47.54-7.07.09-13.85.85-8.45.94-16.62.82c-5.15-.07-9.88.9-14.91 1.62q-3.19.45-7.16.63-3.59.16-7.15.44-1.54.12-3 .57-1.29.41-2.56.64-.86.15-.16-.36c3.69-2.71 9.32-1.32 13.67-2.01Z"/><path d="M751.03 170.53c-5.75.5-11.8 1.37-17.58 1.65-4.32.22-8.61.89-12.8 1.62-4.2.73-8.55.48-12.79.48q-.21 0-.22-.21v-.01q0-.16.16-.18c4.81-.39 9.43-.18 14.17-1.23q4.43-.99 9.16-1.38 6.06-.48 12.67-1.52 6.13-.97 12.83-1.6 8.63-.82 17.16-1.77 8.36-.94 17.08-1.59 5.93-.45 12.08-1.03 6.04-.56 12.07-1.02 48.65-3.71 72.73-4.6 23.57-.87 46.86-1.69 9.85-.35 19.98-.36 24.22-.03 49.66.34 3.23.05 6.25.13 65.68 1.69 124.11 9.79c13.56 1.88 27.39 5.06 40.85 7.6q13.11 2.48 27 6.31 10.39 2.87 35.22 11.26 6.68 2.25 14.88 6.2 8.23 3.96 14.65 6.82c5.44 2.42 10.1 5.67 15.1 8.61q7.35 4.33 13.77 9.07 5.13 3.79 12.7 10.57c4.56 4.09 8.43 8.75 12.53 13.21 4.35 4.71 8.96 11.63 11.39 16.55 2.51 5.09 5.6 10 7.43 15.18q2.53 7.13 3.91 13.72.55 2.63.17 5.56-.07.54-.49.87c-2.92 2.31-9.44-2.61-11.67-4.66-5.07-4.7-11.58-8.63-17.12-13.5q-2.62-2.31-5.51-4.32c-9.45-6.59-18.39-13.57-28.24-19.21-4.3-2.46-8.08-5.49-12.4-7.85q-8.16-4.45-16.22-8.77c-2.74-1.47-5.31-3.49-8.18-4.78q-9.02-4.06-19.04-8.84-9.27-4.42-18.31-8.04-13.2-5.28-27.34-10.55c-10.08-3.76-21.55-6.71-31.98-10.25q-6.68-2.26-14.25-4.2-15.44-3.96-30.82-7.28c-7.72-1.67-15.3-3.81-23.11-5.21q-30.95-5.53-48.84-7.58c-12.56-1.43-25.67-3.35-37.5-4.48q-43.13-4.15-86-4.33c-8.21-.03-16.27-.88-24.63-.47-10.6.52-20.08.45-30.31.45-2.04 0-4.12.34-6.17.39q-34.61.8-69.56 3.73-1.84.15-4.03.38-10.73 1.09-21.46 2.02Zm751.21 274.71c10.44 5.02 21.65 8.3 32.64 12.14q6.72 2.36 13.73 4.11 24.57 6.14 49.07 8.16c10.93.9 21.96 1.8 32.74 1.42q41.05-1.45 77.98-10.55 5.5-1.36 10.8-3.15c7.55-2.56 15.13-4.59 22.7-7.14q6.36-2.15 12.55-4.65 3.08-1.24 6.36-2.62 16.97-7.11 26.14-11.62 7.68-3.77 16.21-8.15c7.85-4.02 15.19-8.51 22.71-12.92 4.01-2.34 8.16-4.29 11.91-7.06q2.94-2.18 6.09-4.12 10.57-6.49 15.43-10.1 6.7-4.99 12.75-8.87 4.01-2.58 6.93-5.28.43-.39.39.19-.1 1.54-.56 2.97-2.05 6.27-4.66 12.96c-1.09 2.78-2.75 5.12-3.96 7.85q-4.82 10.86-10.39 20.75c-1.26 2.23-3.03 4.21-4.27 6.43q-4.09 7.38-8.45 13.26c-5.85 7.89-11.92 16.09-18.62 23.51q-19.88 22.01-44.74 38.2-5.24 3.42-11.24 6.55c-5.17 2.69-10.06 5.67-15.43 7.98q-9.08 3.9-18.8 6.99c-6.71 2.12-13.52 4.5-20.42 6.07q-33.38 7.61-61.33 8.77-5.38.22-19.2.11c-16.23-.13-31.28-1.85-46.89-4.93q-11.47-2.26-21.28-5.68-16.12-5.62-26.4-10.41-8.04-3.74-23.09-12.73-5.73-3.41-10.53-7.08-5.47-4.18-11.24-8.26c-2.34-1.65-4.09-3.93-6.26-5.73-4.96-4.14-9.85-8.16-14.14-13.17q-2.41-2.82-5.15-5.36c-3.83-3.56-6.66-8.1-10.15-12.03-1.93-2.19-3.94-4.21-5.59-6.66-5.73-8.53-12.12-16.9-16.99-26.05q-3.77-7.11-7.73-14.24-1.04-1.86-1.46-3.77-.6-2.76 1.39-.76c6.32 6.33 12.98 10.76 19.85 16.04q4.57 3.52 9.49 6.44c7.54 4.48 14.27 9.13 22.23 13.02q10.11 4.95 18.88 9.17ZM338.36 677.79l-.06-45.86a2.8 2.79 76.8 0 1 1.54-2.5l37.22-18.64a.93.92-13.4 0 1 1.34.82q.2 30.71 0 63.35-.01 1.15-.28 2.69-.09.52.44.59 2.21.27 4.42.26 14.11-.05 28.91.06 1.13.01 1.13 1.14l-.02 34.82a.77.76 0 0 1-.77.76l-33.26.01q-.54 0-.53.53.02 43.88.02 87.8c0 8.53 2.96 15.63 13.06 15.82q6.65.13 14.49-3.03c3.19-1.28 5.45-3.88 8.54-5.46a.48.47-15.2 0 1 .69.39q.06.99-.05 1.95-1.97 17.27-4.05 34.29-.19 1.55-1.59 2.18c-6.86 3.09-14.83 5.76-22.26 6.69q-12.27 1.54-25.2-3.1-4.56-1.63-8.14-4.42-4.52-3.53-6.78-6.63c-6.9-9.42-8.76-23.84-8.78-35.72q-.1-46.31-.04-90.63a.67.66-90 0 0-.66-.67l-20.42.01a.77.77 0 0 1-.77-.77l-.07-34.96q0-1.01 1-1.01l20.29-.11q.64-.01.64-.65Zm150.47 11.01c5.2-6 11.79-9.21 18.92-12.37q3.43-1.52 6.97-1.66 6.21-.25 12.76 0 5.98.22 13.89 3.35 6.21 2.45 11.3 7.23 6.88 6.45 9.7 16.24 2.86 9.96 3.55 20.59c.39 6.01.78 12.05.78 18.09q0 58.08-.02 112.08a.72.72 0 0 1-.72.72l-38.47-.02a.75.74 0 0 1-.75-.74q-.04-55.85.03-109.52c.01-7.55-.63-14.57-2.05-21.75-.51-2.57-1.53-5.27-3.88-6.71-7.07-4.33-16.78-2.68-23.07 2q-3.89 2.88-7.85 7.47-1.73 2-1.73 4.62.04 61.52.02 123.55a1.13 1.13 0 0 1-1.13 1.13l-37.83-.04a1.21 1.21 0 0 1-1.2-1.21l-.01-219.92a2.82 2.81-13.4 0 1 1.55-2.51l37.45-18.73q.38-.19.73.3.37.51.38 1.51.1 26.2.06 47.34c-.02 8.8-1.06 18.99-.34 28.64a.55.55 0 0 0 .96.32Zm784.8 79.55q.02-.84-.82-.85l-31.49-.06q-1.11-.01-1.11-1.12l.05-37.63a.81.81 0 0 1 .81-.81l72.24.06q.79 0 .8.79.27 23.55-.06 44.6c-.18 11.17-1.54 23.16-5.26 34.14q-2.25 6.62-4.73 12.42-1.28 2.98-4.57 8.34-2.51 4.08-5.83 7.27c-3.66 3.53-6.72 7.44-11.17 10.09q-6.63 3.95-11.74 5.76-8.65 3.06-18.93 4.6-10.3 1.54-18.93.42c-11.03-1.43-21.69-4.68-30.56-10.92-12.21-8.58-21.22-21.25-26.6-35.02-2.05-5.25-4.41-10.1-5.83-15.63q-5.96-23.19-6.62-48.72c-.59-22.89.82-45.75 6.81-67.73q1.09-4 2.83-8.22c2.78-6.74 5.39-12.95 9.1-19.67q2.45-4.46 5.32-7.54c3.49-3.74 6.36-8.21 10.41-11.25q7.56-5.68 15.02-9.38 9.58-4.75 23.6-5.25c13.62-.49 26.55.82 38.19 7.19 5.5 3.01 11.35 6.02 15.48 10.73 3.73 4.25 7.89 8.11 10.77 13.47q6.93 12.95 11.01 26.94a1.2 1.2 0 0 1-.79 1.48l-37.8 11.89a.66.65 72.3 0 1-.82-.43q-2.28-7.16-6.12-13.93-9.58-16.93-29.36-15.12-11.72 1.08-18.36 11.11-6.5 9.8-8.95 22.41c-3.42 17.59-3.96 34.81-3.53 52.82q.5 20.67 4.14 36.52c1.68 7.31 4.54 13.04 7.86 19.37 3.32 6.33 9.16 9.75 15.82 11.66 7.85 2.25 17.99.43 24.76-2.74 7.6-3.56 11.85-13.19 13.07-20.87q1.65-10.33 1.89-21.19ZM60.74 770.1q-1.21-.05-1.21 1.17l-.03 80.56q0 1.26-1.25 1.26l-40.21-.04a.77.76 0 0 1-.77-.76V621.01a.76.76 0 0 1 .76-.76q29.29.09 56.16-.08 12.37-.08 19.55.95 11.4 1.62 22.98 6.67 13.87 6.05 23.01 18.5c4.28 5.83 7.75 12.32 9.88 19.37 3.62 12.02 4.39 24.76 3.62 36.9-.73 11.64-3.6 23.93-10.14 33.65q-5.44 8.07-9.21 12.27-2.61 2.91-10.54 8.61-6.06 4.37-11.17 6.45c-16.54 6.74-33.79 7.19-51.43 6.56Zm-1.17-107.8-.12 65.8a.97.97 0 0 0 .97.98l21.39.03a29.35 29.28-89.9 0 0 29.33-29.29l.02-9.04a29.35 29.28-89.9 0 0-29.23-29.41l-21.39-.03a.97.97 0 0 0-.97.96Zm192.49 181.14a.84.82 23.1 0 0-.64.25c-3.69 3.8-7.73 7.02-12.67 9.1q-3.8 1.58-7.27 2.87c-5.43 2.02-15.05 1.79-20.8.28-5.87-1.53-12.6-3.94-17.62-7.56q-15.2-10.93-19.89-29.89-1.77-7.14-2.68-15.26c-1.18-10.45.44-20.95 3.54-30.73q2.16-6.8 6.75-13.83c3.36-5.14 9.54-10.21 14.7-13.63q3.06-2.03 8.73-4.21c9.62-3.7 20.79-3.6 31.34-2.65q8.6.76 15.99 5.2a.63.63 0 0 0 .96-.56c-.26-5.91.65-12.67-1-18.36-1.78-6.13-4.44-11.57-11.26-13.13-6.81-1.55-13.52-1.05-20.26-.1-8.96 1.26-15.48 4.84-22.78 9.77a.56.55-31.3 0 1-.79-.19q-4.81-8.69-9.04-16.72c-2.01-3.82-4.55-7.27-6.63-11.18a1 .99-38.4 0 1 .14-1.15q.89-.99 2.06-1.73 16.01-10.1 33.49-13.63 18.29-3.69 37.02.05 4.79.96 11.53 3.56c16.69 6.46 24.4 21.85 26.57 38.56q.78 6.08.76 16.9-.13 59.76-.03 116.64a.98.97 0 0 1-.99.98l-38.25-.06a.71.71 0 0 1-.71-.67q-.26-3.95.43-8.35.08-.51-.7-.57Zm-29.99-70.83c-7.23 3.68-11.67 13.01-12.06 20.83q-.64 12.52 6.27 22.09 3.24 4.49 9.48 5.49 10.35 1.66 18.66-4.58 1.81-1.36 6.53-7.33c.92-1.16 1.45-2.58 1.44-4.04q-.12-11.24.08-22.99c.04-2.16-1.08-3.57-2.82-4.66q-3.82-2.41-7.42-4.15-4.5-2.17-12.69-2.14-4.62.02-7.47 1.48Zm645.48 71.72q.03-1.9-1.24-.49c-5.12 5.65-10.47 8.27-17.47 11.08-8.39 3.36-19.58 2.66-27.75-.45-3.22-1.23-6.38-2.04-9.44-3.85-9.28-5.52-17.02-14.16-20.67-24.36-1.31-3.66-3.09-7.36-3.87-11.14Q784.63 803 785.42 790q.43-6.96 2.05-12.52c2.29-7.84 6.06-16.13 11.17-22.41 2.71-3.34 6.31-5.35 9.5-8.21q1.94-1.74 4.36-2.99 11.24-5.79 22.49-6.08c11.08-.29 22.05-.22 31.6 5.48a.62.62 0 0 0 .94-.54c-.17-6.12.72-13.17-1.01-18.93-2.19-7.29-5.45-11.81-13.44-12.95q-9.25-1.3-20.38.81c-7.71 1.46-14 5.1-20.61 9.24q-.48.3-.73-.21-7.06-14.04-15.37-27.4a1.31 1.3 49.8 0 1 .13-1.56q1.38-1.56 3.56-2.79 6.67-3.76 12.63-6.41 16.11-7.15 32.67-7.81c14.28-.58 27.02 1.12 40.03 7.52 3.68 1.81 7.24 4.7 9.8 7.98 2.67 3.41 5.4 6.5 7.09 10.58 4.3 10.39 5.68 20.42 5.65 32.69q-.13 59.23-.03 118.32a1.29 1.29 0 0 1-1.29 1.29l-37.87-.07a.91.9.6 0 1-.91-.92l.1-7.78Zm-26.66-72.87c-4.53.62-8.39 4.24-11.4 8.31-5.25 7.1-5.15 18.71-2.84 26.84q1.33 4.7 4.79 8.99c6.72 8.34 19.7 6.78 27.66 1.24q2.08-1.44 5.01-5.08c2.09-2.61 3.39-3.88 3.38-6.74q-.03-12.01.01-24.11c.01-1.78-1.57-2.66-2.83-3.59q-10.46-7.65-23.78-5.86Zm546.65-83.35q5.06-4.09 11.24-7.76c6.38-3.77 11.26-5.73 18.78-5.75 5.11-.01 10.06.05 14.8 1.74 4.68 1.67 9.16 4.4 13.37 6.95a.48.46-66.9 0 1 .2.52l-10.68 37.54a1.2 1.2 0 0 1-1.84.65q-2.14-1.5-4.04-2.93c-8.19-6.23-22.97-7.97-31.4-1.74q-3.91 2.9-7.72 6.35-3.61 3.27-3.62 7.7-.03 60.5.03 120.47.01 1.2-1.2 1.2h-38.05a.89.88 90 0 1-.88-.89l-.01-172.71q0-.95.95-.95l38.06.01q1.27 0 1.23 1.27l-.21 7.84q-.04 1.32.99.49Zm166.76-7.35q5.68 2.57 10.13 6.28c6.34 5.28 11.97 11.63 15.69 19.13 2.22 4.46 4.77 8.66 6.37 13.42q5.98 17.88 6.5 38.48.23 9.41-.16 18.07c-.63 14.3-3.35 30.95-10.11 43.79-3.1 5.89-6.21 11.98-10.74 16.78q-3.78 4-7.95 7.52c-9.42 7.95-25.93 12.76-37.88 12.59q-8.67-.12-19.44-3.56-18.16-5.79-28.44-20.73c-4.19-6.09-7.75-12.09-10.26-19.15q-4.58-12.89-6.5-30.6-1.27-11.72-.96-19.8c.69-17.93 3.45-36.2 10.11-50.93q3.13-6.92 9.42-15.2 5.89-7.74 13.52-12.49 10.19-6.33 21.54-8.84c5.63-1.24 12.23-.93 18.1-.72 7.47.27 14.02 2.76 21.06 5.96Zm-6.41 121.4q3.93-12.06 4.7-24.38 1.31-21.09-1.65-37.15c-1.82-9.79-4.47-17.71-11.53-24.22-5.97-5.49-14.57-5.62-21.89-2.75-6.54 2.57-10.79 10.77-12.52 17.09q-9.21 33.71-.2 67.9c2.1 7.98 6.43 16.27 14.2 19.26 6.27 2.42 14.33 2.33 19.5-2.27 4.12-3.64 7.62-8.07 9.39-13.48Zm267.35 43.91.01 50.66q0 .73-.64 1.08c-5.54 3.03-11.52 5.64-17.09 8.4q-9.05 4.48-18.45 9.51-1.41.75-3.26.88-.52.04-.52-.48-.06-117.53-.03-234.95c0-.64-.22-1.19-.35-1.79q-.19-.85.68-.85l38.58-.03q1.18 0 1.15 1.17l-.16 8.06a.52.52 0 0 0 .67.51q1.25-.37 2.2-1.23 6.41-5.79 16.96-10.19c6.69-2.79 14.28-2.52 21.19-1.79 5.9.63 11.82 3.89 16.78 6.92 3.56 2.18 6.7 5.58 9.21 9.03q2.62 3.61 4.89 7.09 2.31 3.54 4.32 9.63 3.48 10.48 5.11 21.26c1.42 9.41 2.31 19.73 2.32 29.28 0 9.05.21 18-.63 27.1-1.34 14.35-3.72 28.17-9.19 41.15q-1.77 4.21-4.84 8.38c-2.67 3.63-5.17 7.67-8.48 10.54-9.27 8.06-24.62 13.6-37.2 10.59-7.9-1.9-15.33-5.09-21.05-10.83q-2.18-2.19-2.18.9Zm30.18-27.43c8.45-2.37 11.21-17.2 12.17-24.39.67-5.07 1.38-10.13 1.4-15.21.04-11.61.59-24.08-.66-35.33q-.91-8.2-2.45-15.54c-1.03-4.89-3.53-11.62-8.06-14.21-7.65-4.38-18.17-1.42-24.33 4.19-2.91 2.66-8.25 7.01-8.25 11.11q0 37.65.01 73.4 0 1.91 1.39 3.29c4.02 3.99 8.79 9.52 13.85 11.55q7.81 3.13 14.93 1.14ZM715.06 778.52q1.2 6.78 1.66-.09.24-3.54.9-7.16c4.92-26.52 9.47-56.16 14.19-83.52q.71-4.09 1.52-7.91a1.7 1.69-83.8 0 1 1.65-1.34l33.56.02q1.47 0 1.17 1.45-4.3 20.41-8.66 39.74-.81 3.55-1.6 7.09-5.56 24.77-10.38 47.8c-1.43 6.83-3.48 14.09-5 21.23q-3.83 18.07-7.5 35.68-2.24 10.7-4.73 19.79-.49 1.78-2.33 1.78h-27a.97.97 0 0 1-.95-.79q-3.91-20.26-8.04-39.51-1.03-4.77-2.2-10.08-6.53-29.67-11.41-59.58-.15-.93-.89-1.63-.51-.48-.55.22c-.09 1.58-.21 3.12-.47 4.68q-5.72 34.29-13.07 68.6-.75 3.5-1.41 6.65-3.25 15.46-6.01 30.29a1.46 1.46 0 0 1-1.45 1.2l-27.13-.12q-1.31-.01-1.59-1.29l-37.95-171.79q-.32-1.42 1.13-1.42h34.02q1.31 0 1.52 1.29c3.66 22.34 7.41 45.91 11.72 69.02q2.51 13.45 4.52 28.36c.19 1.39.67 2.87 1.08 4.21q.72 2.39.73-.11c.03-4.93 1.19-9.98 2.12-14.92q1.6-8.45 3.53-16.78 2.09-8.97 3.73-16.67 5.41-25.47 10.3-48.17.51-2.36 1.58-5.42a1.25 1.24 9.5 0 1 1.18-.83l26.38.04q1.18 0 1.42 1.15 4.08 19.4 8.27 39.36c1.66 7.9 3.72 15.24 5.35 22.96q3.79 17.95 7.09 36.52Zm285.9 17.3q.16-.13.28-.3.12-.2.13-.43.06-2.85.61-5.83 2.49-13.54 5.69-27.96 5.44-24.5 10.19-47.3c2.4-11.49 5.73-22.74 7.82-34.19q.24-1.31 1.58-1.31l39.42.02q1.31 0 .79 1.2-1.34 3.15-2.11 6.72c-1.37 6.38-4.02 12.3-5.59 18.46q-5.39 21.05-11.73 42.52c-3.98 13.48-7.29 26.28-10.87 39.44-1.14 4.15-2.82 8.36-3.97 12.6q-5.03 18.57-9.72 35.93c-1.41 5.23-3.47 10.41-4.83 15.58-3.86 14.64-7.74 29.82-12.44 44.66q-2.82 8.89-4.62 17.49a1.12 1.1 5.7 0 1-1.09.88l-35.22.01q-1.14 0-.89-1.11c1.12-5.11 3.17-9.98 4.47-14.94q4.67-17.86 9.48-36.13 1.31-4.96 3.23-10.51a5.05 5.01-46.5 0 0-.08-3.5q-1.48-3.69-2.48-7.12-5.34-18.31-10.72-36.69c-1.3-4.44-3.07-8.76-4.38-13.24q-5.12-17.5-9.62-33.23c-1.15-4.01-2.91-8.02-4.05-11.99q-2.99-10.47-6.37-22.01-2.19-7.5-5.9-19.08-3.95-12.32-7.38-25.04-.24-.9.69-.9l40.41-.03q.37 0 .46.36 3.64 15.52 6.97 29.27c.68 2.8 2.09 6.5 2.87 9.75q5.38 22.43 10.96 45.1 3.3 13.41 5.74 25.84c.46 2.38 1.27 4.48 1.73 6.81a.34.34 0 0 0 .54.2Zm699.16 47.12a.43.43 0 0 0-.71-.34c-9.22 7.84-19.69 13.8-31.66 14.31q-2.93.13-9.9-.92-11.26-1.69-20.42-7.93-2.89-1.97-4.79-4.67-7.89-11.16-9.73-22.82c-1.4-8.86-2.03-17.87-2.02-27.11q.06-57.36.01-113.93 0-1.03 1.03-1.03l38.08.01q1.06 0 1.05 1.05-.09 55.93 0 117.97.02 9.1 3.43 17.12.41.96 1.26 1.5 7.74 4.98 16.38 2.58 4.02-1.12 8.44-4.61 4.87-3.83 7.7-6.81c1.78-1.89 1.76-3.75 1.76-6.23q0-61.17-.02-121.77 0-.8.8-.8l37.94-.01q1.26 0 1.26 1.25l.03 172.12a.67.66-90 0 1-.66.67l-38.66-.04a.78.78 0 0 1-.78-.79l.18-8.77ZM178.96 974.23c5-3.98 9.59-5.26 16.09-3.56 8.74 2.29 9.92 11.74 9.93 19.31q.05 19.37.01 39.41a.51.51 0 0 1-.51.5h-12.41a.37.37 0 0 1-.37-.37q.05-20.68-.02-39.54c-.01-3.89-.75-8.01-5.86-7.48-2.98.3-7.63 2.78-7.61 6.52q.09 19.84.02 40.34a.52.52 0 0 1-.52.51l-12.15.04a.6.6 0 0 1-.61-.6l-.02-74.3a.55.54-14.8 0 1 .3-.5l12.31-6.21q.71-.36.71.44l-.03 25.13q0 .94.74.36Zm360.99-25.42-.03 80.52a.54.54 0 0 1-.54.54l-12.28.03a.54.54 0 0 1-.54-.54l-.01-74.42a.54.54 0 0 1 .3-.48l12.32-6.13a.54.54 0 0 1 .78.48Zm227.03 35.65q.04 13.95 0 28.5c-.02 7.75 7.98 5.83 11.88 2.97q.73-.53.62.37l-1.37 11.6q-.07.59-.6.85-5.71 2.92-12.59 2.11c-8.71-1.02-11.19-8.64-11.2-16.18q-.02-14.65 0-30.28a.66.66 0 0 0-.66-.66l-6.05.02a.75.74.4 0 1-.75-.75l.02-11.41q0-.63.63-.62l6.31.05a.5.5 0 0 0 .5-.5l-.01-15.36a.93.93 0 0 1 .51-.83l12.08-6.04a.47.47 0 0 1 .68.42l.02 21.79a.51.5 0 0 0 .51.5L778 971q.76-.01.76.75l.01 11.24q0 .76-.76.76l-10.34.01q-.7 0-.69.7Zm36.76-10.06c1.62-1.05 2.95-2.23 4.75-3.09q4.58-2.19 10.79-.86c7.87 1.68 10.62 8.98 10.68 16.08q.17 20.15.03 42.75a.64.63 0 0 1-.64.63l-11.95-.04a.62.62 0 0 1-.62-.62q-.02-17.92-.01-40.09c.01-9.69-9.09-7.51-13.08-2.26q-.38.51-.38 1.15l-.03 41.38a.47.46-90 0 1-.46.47l-12.09.03a.7.7 0 0 1-.7-.7v-74.02q0-.53.48-.77l12.26-6.21a.36.36 0 0 1 .53.32v25.61a.29.28 73.4 0 0 .44.24Zm245.51-.62q0 1.21.89.39 6.25-5.77 15.31-3.63c8.58 2.03 10.48 10.32 10.51 18.07q.07 19.98.03 40.54-.01.72-.72.72l-12.13.02a.47.47 0 0 1-.47-.47q.03-19-.01-38.79 0-1.77-.24-3.59c-1.06-7.84-9.93-4.27-12.91-.06a1.39 1.31-28.4 0 0-.26.79l-.01 41.56a.58.57 90 0 1-.57.58l-12.17-.03q-.63-.01-.63-.63l-.01-73.76a1.31 1.3 76.8 0 1 .72-1.17l11.97-6.01a.49.48 76.9 0 1 .7.44v25.03Zm124.43 17.63 11.67-20.12a.85.83 14.7 0 1 .73-.42l13.47-.03a.48.47 16.7 0 1 .4.73l-11.74 17.7a2.32 2.3 52.8 0 0-.27 2.02l12.85 37.91a.54.54 0 0 1-.51.72h-12.66a.74.74 0 0 1-.71-.52l-8.28-25.57a.33.32 52.7 0 0-.58-.08c-1.76 2.76-4.82 6.44-4.81 9.75q.04 7.95-.03 15.75-.01.64-.65.64l-12.1.05a.48.48 0 0 1-.48-.48l-.01-74.12q0-.78.69-1.12l11.92-5.89q.7-.35.7.43l-.08 42.52q0 .95.48.13Zm76.39-42.56-.03 80.49a.54.54 0 0 1-.54.54h-12.19a.54.54 0 0 1-.54-.54l-.01-74.41a.54.54 0 0 1 .3-.48l12.23-6.08a.54.54 0 0 1 .78.48Zm26.38-.04-.01 80.56a.53.53 0 0 1-.53.53l-12.21.03a.53.53 0 0 1-.53-.53l-.02-74.51a.53.53 0 0 1 .29-.48l12.24-6.07a.53.53 0 0 1 .77.47Zm212.79 78.15a.45.45 0 0 0-.77-.31c-6.22 6.37-16.66 5.81-21.89-1.43q-2.68-3.71-3.77-8.52-3.29-14.45-.47-29.66.86-4.65 3.18-8.77c4.86-8.64 15.39-11.23 23.02-4.67a.43.43 0 0 0 .71-.33l-.01-18.12a.69.69 0 0 1 .39-.62l12.29-6.23a.42.42 0 0 1 .61.38l-.01 80.76a.47.46 90 0 1-.46.47h-12.12q-.72 0-.71-.72l.01-2.23Zm-14.15-16.69c.49 4.38 2.32 9.61 8.02 7.99q3.48-.98 5.7-3.92a2.17 2.16 63.7 0 0 .44-1.31v-25q0-.52-.3-.94c-2.83-4.06-10.28-7.65-12.72-1.08q-1.2 3.24-1.47 7.61-.54 8.82.33 16.65Zm236.5-18.84 11.71-20.4a.32.32 0 0 1 .28-.16l14.08-.02a.32.32 0 0 1 .27.5l-12.4 18.75a.32.32 0 0 0-.04.28l13.24 39.1a.32.32 0 0 1-.3.42l-13.24.04a.32.32 0 0 1-.3-.22l-8.45-25.91a.32.32 0 0 0-.57-.07l-4.72 7.66a.32.32 0 0 0-.05.17l-.05 17.99a.32.32 0 0 1-.32.32l-12.62.06a.32.32 0 0 1-.32-.32l-.01-74.84a.32.32 0 0 1 .18-.29l12.71-6.27a.32.32 0 0 1 .46.29l-.14 42.76a.32.32 0 0 0 .6.16Z"/><circle cx="377.34" cy="957.03" r="8.44"/><circle cx="560.1" cy="957.04" r="8.44"/><circle cx="1216.51" cy="957.03" r="8.43"/><path d="M155.11 1010.73a.52.51 19.7 0 1 .29.61c-3.69 12.72-11.99 21.68-26.22 19.38-19.41-3.14-22.41-28.71-21.67-44.37.74-15.76 6.64-36.83 26.75-36.08 11.98.45 18.09 8.38 20.95 19.21q.16.62-.44.82l-12.23 3.98a.51.5-15.2 0 1-.65-.37c-.76-3.43-2.46-7.97-6.12-9.12-15.54-4.88-14.19 26.72-13.52 34.48.48 5.42 2.35 15.62 8.64 17.31 7.18 1.93 10.51-4.56 12.05-10.22q.18-.69.83-.41l11.34 4.78Zm86.08-18.48c.44-4.76-.03-10.04-5.99-10.38q-6.43-.36-11.98 3.13-.66.41-1.03-.26l-4.56-8.11q-.55-.97.39-1.57 8.18-5.27 17.95-5.07c11.58.23 18.52 5.94 18.53 17.92q.02 22.03.01 41.27a.56.56 0 0 1-.56.56l-11.98.02q-.79 0-.78-.79l.01-1.52q0-1.27-.93-.42-7.14 6.53-16.44 2.52c-9.12-3.93-11.56-15.67-9.6-24.52q2.68-12.11 14.76-13.98 5.93-.92 11.56 1.58.58.26.64-.38Zm.205 16.695a6.46 6.46 0 0 0-6.148-6.757l-1.199-.057a6.46 6.46 0 0 0-6.757 6.149l-.186 3.955a6.46 6.46 0 0 0 6.148 6.757l1.199.057a6.46 6.46 0 0 0 6.757-6.149l.186-3.955Zm38.325-34.995q-.02 1.08.78.35 7.02-6.42 16.73-3.41c7.04 2.18 9.13 9.73 9.19 16.43q.16 21.26.05 42.13a.46.46 0 0 1-.46.46l-12.13-.02a.63.63 0 0 1-.63-.63q.01-23.96-.11-40.81c-.07-9.07-9.2-6.3-12.83-1.84a2.46 2.45-25.3 0 0-.56 1.56l-.01 41.1a.63.63 0 0 1-.63.63l-11.95-.08a.65.65 0 0 1-.65-.65l-.01-57.59a.42.42 0 0 1 .42-.42l12.17-.02q.7 0 .68.7l-.05 2.11Zm64.39 52.75a.29.29 0 0 0-.49-.15q-5.37 5.36-12.95 4.29c-8.55-1.21-12.28-10.15-13.46-17.53-1.99-12.51-2.74-40.24 14.37-43.11q7.03-1.18 12.09 3.5a.32.32 0 0 0 .54-.19l.28-1.85q.08-.51.6-.51l11.96-.01a.66.66 0 0 1 .66.66q0 26.88-.01 53.94c0 10.96-3.22 19.72-14.55 23.38q-5.61 1.81-10.6 2.23-.18.01-.25-.16l-3.45-9.43a.3.3 0 0 1 .24-.4q17.48-2.33 15.02-14.66Zm-12.48-41.17q-1.32 2.81-1.57 6.47c-.49 7.11-.89 15.34 1.07 22.16 1.94 6.77 8.52 4.58 12.13 1.09q1.19-1.15 1.19-3.04.01-11.39.05-22.42.01-2.58-1.16-3.85c-3.02-3.29-9.21-5.74-11.71-.41Zm79.43-11.59q6.89-6.1 16.61-2.93c6.76 2.21 8.8 9.96 8.82 16.46q.05 21.64.01 42.12a.31.31 0 0 1-.31.31l-11.97.04a.97.96-90 0 1-.96-.97q.06-21.66-.02-38.35c-.02-5.06-.84-9.45-7.19-7.87-2.23.56-6.26 2.98-6.25 5.91q0 17.41-.02 40.53a.71.71 0 0 1-.71.71H397.2a.7.69 90 0 1-.69-.7l.01-57.73a.31.31 0 0 1 .31-.31l12.29-.01q.45-.01.6.42.29.83.15 1.71-.32 1.99 1.19.66Zm63.45 54.95q.77-3.84-2.1-1.18c-3.68 3.42-10.01 4.22-14.67 2.29-6.51-2.69-9.48-10.28-10.5-16.89-1.87-12.13-2.82-41.73 15.85-43.09q6.06-.44 10.42 3.41.91.8.97-.41l.06-1.24q.03-.64.67-.64l11.83.02q.69 0 .69.69.1 38.25-.07 56.62c-.14 15.5-10.78 21.39-24.55 22.86a.86.86 0 0 1-.9-.56l-3.12-8.58a.73.73 0 0 1 .59-.97q5.16-.67 9.54-2.77 3.75-1.78 4.56-5.86.37-1.85.73-3.7Zm-13.26-14.58c2.1 6.45 8.71 4.57 12.13.83q1.15-1.26 1.14-2.91-.09-11.41.01-23.18.02-1.76-1.17-3.1c-3.18-3.54-9.73-5.8-11.97.24q-.79 2.12-1.04 4.34-.96 8.31-.3 17.35.26 3.57 1.2 6.43Zm176.44-7.85c.69 6.64 3.48 13.01 11.58 11.75 2.81-.43 4.83-2.22 6.48-4.4a.74.73-53.1 0 1 1.02-.15l8.52 6.34a.57.57 0 0 1 .14.75c-3.77 6.13-10.01 9.92-17.26 10.25-21.38.95-25.59-21.78-23.41-38.3 1.21-9.13 5.61-18.42 14.55-21.6 6.31-2.25 13.93-1.2 19 3.33 8.08 7.24 9.82 19.79 9.1 30.55a.61.6 2 0 1-.61.56l-28.32.06a.79.78-2.9 0 0-.79.86Zm.61-11.68h15.28a.58.58 0 0 0 .58-.58v-.18a12.06 8.14 90 0 0-8.14-12.06h-.16a12.06 8.14-90 0 0-8.14 12.06v.18a.58.58 0 0 0 .58.58Zm54.22 23.57c7.77.71 10.23-6.37 3.33-9.96-8.6-4.49-18.01-7.51-19.29-18.53-1.42-12.27 6.49-20.22 18.64-19.88q8.45.23 15.52 4.97a.9.9 0 0 1 .33 1.1l-4.04 9.43a.84.84 0 0 1-1.2.4q-5.1-3-11.24-3.24c-4.32-.17-7.36 4.05-3.42 7.31 3.19 2.63 7.75 4.34 11.43 6.29q12.66 6.71 9.72 21.25c-3.49 17.31-26.71 16.07-37.1 7.41q-.42-.35-.21-.85l4.3-10.26q.26-.63.81-.23 5.87 4.2 12.42 4.79Zm162.93-44.04c1.17-.7 2.12-1.68 3.35-2.4q7.19-4.17 15.44.49a1.14 1.14 0 0 1 .53 1.32l-3.5 11.81a.41.41 0 0 1-.65.2c-4.55-3.57-10.51-3.63-14.55.83q-1.11 1.22-1.11 2.71.01 20.49-.01 40.11a.5.5 0 0 1-.5.5l-12.18-.02q-.58 0-.58-.59l-.02-57.71a.44.44 0 0 1 .46-.44q5.52.2 11.7-.03.78-.02 1.03.58.37.9-.14 1.99a.51.51 0 0 0 .73.65Zm46.35-4.28c9.76.58 16.33 7.63 18.89 16.69 3.49 12.31 3.02 34.11-10.32 41.69-7.83 4.45-18.63 3.38-25.01-3.54-8.18-8.86-8.74-24.14-6.39-35.47 2.38-11.48 10.33-20.1 22.83-19.37Zm-2.23 48.31c9.99.98 9.8-17.34 9.07-23.51-.54-4.58-2.04-10.92-7.35-12.01-4.9-1-7.99 3.14-8.91 7.44-1.4 6.48-3.03 27.09 7.19 28.08Zm110.4-44.87.21-1.65q.08-.66.75-.66l11.91-.01q.61 0 .61.61 0 26.53.02 53.25c.01 10-2.33 19.21-12.42 23.26q-5.92 2.37-12.38 3.09a.73.72-12.7 0 1-.76-.48l-3.15-8.66a.76.76 0 0 1 .61-1.01q3.64-.5 7.49-1.85c6.18-2.18 7.25-6.44 7.26-12.43a.43.42 68.2 0 0-.72-.31q-5.04 4.96-12.12 4.32c-16.33-1.47-15.99-27.43-14.85-38.99q.91-9.24 5.12-15.49c4.85-7.19 15.3-8.89 21.8-2.77a.37.37 0 0 0 .62-.22Zm-7.51 9c-5.93-.72-6.61 7.6-6.84 11.65q-.51 9.19.47 17.02c.4 3.23 1.95 7.58 5.98 7.39q4.56-.22 7.56-4.19a2.59 2.57-26.7 0 0 .52-1.55q-.01-12.1.01-23.87c0-3.66-4.7-6.09-7.7-6.45Zm132.76 33.93c2.74-3.43-.45-6.67-3.58-8.27-10.33-5.27-19.77-8.69-18.88-22.73q.48-7.64 6.35-11.92c8-5.82 19.84-3.9 27.94 1.48q.62.42.32 1.1l-4.17 9.62a.61.61 0 0 1-.86.29c-3.51-2-13.27-5.72-16.04-1.3-2.19 3.5 1.95 6.29 4.69 7.55 7.51 3.46 15.87 7.18 17.68 15.85 2.16 10.34-2.55 20.32-13.44 22.39q-13.1 2.49-23.67-5.44a.8.78 29.8 0 1-.26-.93l4.28-10.29q.27-.64.83-.23c3.99 2.85 14.88 7.74 18.81 2.83Zm171.13-33.69c-4.25.12-6.34 4.61-2.58 7.31q3.63 2.59 8.71 4.85c9.35 4.16 14.29 10.97 12.49 21.83-1.56 9.4-9.07 14.1-18.25 14.33q-10.9.27-18.96-6a.85.85 0 0 1-.26-1l4.2-10.07q.32-.76.99-.29c4.54 3.15 11.31 5.89 16.61 4.21 2.74-.88 3.86-3.99 2.44-6.44q-1.16-2.01-3.82-3.29c-10.57-5.1-20.21-9.21-18.92-23.17q.87-9.46 9.4-13.28c7.83-3.51 17.67-1.53 24.89 3.33q.52.35.27.92l-4.08 9.58a.77.77 0 0 1-1.09.37q-5.87-3.37-12.04-3.19Zm78.99 44.19q-8.45 7.51-18.57 1.63-5.79-3.36-7.6-11.54c-2.28-10.33.72-22.13 11.7-25.31q7.41-2.15 14.82.99a.32.32 0 0 0 .44-.3c.04-5.06.04-10.59-6.84-10.58q-6.34.01-11.36 3.29a.59.58 58.7 0 1-.83-.21l-4.85-8.62a.66.66 0 0 1 .2-.87q9.18-6.23 20.65-5.28 15.95 1.33 16.2 17.62.16 11.04.02 41.45a.58.58 0 0 1-.58.58l-12 .01q-.78 0-.75-.78l.07-1.74q.03-1.02-.72-.34Zm.837-18.124a6.37 6.37 0 0 0-6.144-6.588l-1.299-.046a6.37 6.37 0 0 0-6.588 6.144l-.143 4.098a6.37 6.37 0 0 0 6.143 6.588l1.3.046a6.37 6.37 0 0 0 6.588-6.144l.143-4.098Zm39.513-34.786c1.32-.89 2.44-1.99 3.93-2.68q4.47-2.05 10.34-.99c8.81 1.59 11.32 9.63 11.38 17.37q.14 20.79.01 41.47a.77.77 0 0 1-.77.76l-11.82-.01a.73.73 0 0 1-.73-.73q.03-19.99-.03-38.63c-.01-4.78-.8-9.15-6.72-7.9-2.11.44-6.61 2.85-6.62 5.65l-.02 41.16a.47.46 0 0 1-.47.46l-12.1-.06q-.78-.01-.78-.79l-.02-57.36a.52.52 0 0 1 .52-.52l12.07-.04q.46 0 .66.41.38.76.1 1.62-.64 1.96 1.07.81Zm206.72-2.54q8.75 3.39 12.25 13.89c3.92 11.73 3.63 30.28-5.83 39.96-6.58 6.72-18.39 7.8-26.22 2.08-8.8-6.44-10.87-18.93-10.29-30.11.48-9.02 3.55-19.32 11.25-24.1q8.94-5.54 18.84-1.72Zm-11.82 12.46c-5.6 4.23-5.25 16.7-4.35 23.52.55 4.09 1.96 8.95 6.13 10.54q2.55.97 5.03-.25c8.09-4.01 6.96-24.76 3.2-31.29-2.03-3.52-6.61-5.09-10.01-2.52Zm49.86-9.93q-.03.95.68.32 8.68-7.62 18.67-1.9a1.14 1.13 23.4 0 1 .52 1.3l-3.34 11.33q-.28.95-1.11.41-7.88-5.09-14.05.89-1.34 1.31-1.34 3.11.04 20.64 0 39.98a.45.45 0 0 1-.45.45l-12.35.01a.45.45 0 0 1-.45-.45l-.01-57.82a.43.43 0 0 1 .42-.43l12.2-.03q.69 0 .67.69l-.06 2.14Z"/><rect width="13.28" height="58.9" x="370.75" y="970.99" rx=".43"/><rect width="13.28" height="58.92" x="553.5" y="970.99" rx=".59"/><path d="m606.96 971.02 12.57-.04a.35.35 0 0 1 .34.44l-14.88 58.23a.35.35 0 0 1-.34.26l-13.94.02a.35.35 0 0 1-.34-.26l-14.86-58.22a.35.35 0 0 1 .34-.44h12.76a.35.35 0 0 1 .35.28l8.5 41.16a.35.35 0 0 0 .68 0l8.48-41.15a.35.35 0 0 1 .34-.28Zm351.43 55.83a.42.41-22 0 0-.71-.3q-5.9 5.92-14.98 4.08c-8.95-1.82-11.03-10.27-11.03-18.14q-.02-21.02-.02-40.89a.61.61 0 0 1 .61-.61l12 .02q.69 0 .69.68-.04 22.27.11 41.55c.02 3.06 1.83 5.49 5.16 5.36q3.8-.16 7.24-3.65c1.32-1.34.97-3.74.97-5.45q-.04-19.02.06-37.98 0-.53.52-.53l12.07.01a.64.64 0 0 1 .64.64l.01 57.58q0 .7-.7.7l-11.92.01a.81.8 1 0 1-.81-.83l.09-2.25Z"/><rect width="13.32" height="58.92" x="1209.91" y="971" rx=".51"/><path d="m1567.2 993.51-7.04 35.6a.99.98-84.2 0 1-.96.79l-8.7.04a.68.66 83.5 0 1-.65-.53l-12.75-57.63q-.17-.78.63-.78l10.88-.01q.61 0 .72.61l5.73 33.41q.25 1.47.52.01 2.88-15.4 7.09-33.42.15-.6.77-.6h8.24q.66 0 .8.64l7.05 33.08q.27 1.29.5-.01l5.66-33.13a.72.71-84.6 0 1 .7-.59l10.9.02q.81 0 .64.8l-12.75 57.62a.64.63-83.8 0 1-.62.5l-9.08.01a.56.56 0 0 1-.55-.45l-7.35-35.98a.19.19 0 0 0-.38 0Z"/></g></svg>